0
SECTION
2
HEADER
9
$INSUNITS
70
4
9
$ACADVER
1
AC1014
9
$HANDSEED
5
FFFF
0
ENDSEC
0
SECTION
2
TABLES
0
TABLE
2
VPORT
5
8
100
AcDbSymbolTable
0
ENDTAB
0
TABLE
2
LTYPE
5
5
100
AcDbSymbolTable
0
LTYPE
5
14
100
AcDbSymbolTableRecord
100
AcDbLinetypeTableRecord
2
BYBLOCK
70
0
0
LTYPE
5
15
100
AcDbSymbolTableRecord
100
AcDbLinetypeTableRecord
2
BYLAYER
70
0
0
ENDTAB
0
TABLE
2
LAYER
5
2
100
AcDbSymbolTable
70
2
0
LAYER
5
50
100
AcDbSymbolTableRecord
100
AcDbLayerTableRecord
2
0
70
0
6
CONTINUOUS
0
ENDTAB
0
TABLE
2
STYLE
5
3
100
AcDbSymbolTable
70
1
0
STYLE
5
11
100
AcDbSymbolTableRecord
100
AcDbTextStyleTableRecord
2
STANDARD
70
0
0
ENDTAB
0
TABLE
2
VIEW
5
6
100
AcDbSymbolTable
70
0
0
ENDTAB
0
TABLE
2
UCS
5
7
100
AcDbSymbolTable
70
0
0
ENDTAB
0
TABLE
2
APPID
5
9
100
AcDbSymbolTable
70
2
0
APPID
5
12
100
AcDbSymbolTableRecord
100
AcDbRegAppTableRecord
2
ACAD
70
0
0
ENDTAB
0
TABLE
2
DIMSTYLE
5
A
100
AcDbSymbolTable
70
1
0
ENDTAB
0
TABLE
2
BLOCK_RECORD
5
1
100
AcDbSymbolTable
70
1
0
BLOCK_RECORD
5
1F
100
AcDbSymbolTableRecord
100
AcDbBlockTableRecord
2
*MODEL_SPACE
0
BLOCK_RECORD
5
1B
100
AcDbSymbolTableRecord
100
AcDbBlockTableRecord
2
*PAPER_SPACE
0
ENDTAB
0
ENDSEC
0
SECTION
2
BLOCKS
0
BLOCK
5
20
100
AcDbEntity
100
AcDbBlockBegin
2
*MODEL_SPACE
0
ENDBLK
5
21
100
AcDbEntity
100
AcDbBlockEnd
0
BLOCK
5
1C
100
AcDbEntity
100
AcDbBlockBegin
2
*PAPER_SPACE
0
ENDBLK
5
1D
100
AcDbEntity
100
AcDbBlockEnd
0
ENDSEC
0
SECTION
2
ENTITIES
0
ARC
5
100
100
AcDbEntity
8
0
100
AcDbCircle
10
129.64668343044718
20
116.73180937091907
30
0
40
13.535000000014829
210
0
220
0
230
1
100
AcDbArc
50
282.50973313683784
51
283.1797328326
0
SPLINE
5
101
100
AcDbEntity
8
0
100
AcDbSpline
70
0
71
3
72
30
73
26
74
0
42
0.000000001
43
0.0000000001
44
0.0000000001
40
-11.888036356763163
40
-11.888036356763163
40
-11.888036356763163
40
-11.888036356763163
40
-11.297083943873862
40
-11.297083943873862
40
-10.790713465587473
40
-10.790713465587473
40
-10.238034756020284
40
-10.238034756020284
40
-9.6295477130328653
40
-9.6295477130328653
40
-7.4232852399423983
40
-7.4232852399423983
40
-4.4026394906493405
40
-4.4026394906493405
40
-2.6842893107569221
40
-2.6842893107569221
40
-1.9838733744903623
40
-1.9838733744903623
40
-1.5392291848282806
40
-1.5392291848282806
40
-1.1183297484591055
40
-1.1183297484591055
40
-0.64767109587064975
40
-0.64767109587064975
40
0
40
0
40
0
40
0
10
132.57843832310692
20
103.51814075657252
30
0
10
131.26840248919467
20
103.23084925632841
30
0
10
129.95075686052442
20
102.84850866381575
30
0
10
127.64826918976971
20
101.89607752331953
30
0
10
126.61929898539144
20
101.35105568755421
30
0
10
124.68120578133852
20
99.924355036188231
30
0
10
123.81917342920553
20
99.03694825033547
30
0
10
122.40959346115737
20
96.802124541186544
30
0
10
121.96516896852528
20
95.517568235979127
30
0
10
120.86062681607457
20
89.208422115070334
30
0
10
122.62783341783644
20
82.817059653975747
30
0
10
125.89430364336397
20
63.834733928480361
30
0
10
125.99929081593376
20
55.200416814873385
30
0
10
122.91265293720934
20
36.113291083415135
30
0
10
121.48037839097742
20
30.017943626265399
30
0
10
120.94581200649461
20
23.084105182899506
30
0
10
120.96051030059157
20
21.220838226800602
30
0
10
121.48518480411995
20
18.518406671200076
30
0
10
121.82295015588636
20
17.503119993785774
30
0
10
122.88058412476741
20
15.706880140837589
30
0
10
123.54384551774588
20
14.975732223814218
30
0
10
125.26142944009098
20
13.690275066475301
30
0
10
126.42003041020352
20
13.113857781026635
30
0
10
130.02185599237026
20
12.098828644300108
30
0
10
132.37960218240698
20
11.913625741918912
30
0
10
134.53850455967651
20
11.911278843070164
30
0
0
ARC
5
102
100
AcDbEntity
8
0
100
AcDbCircle
10
134.77791980084291
20
21.378251978254454
30
0
40
9.4700000000002031
210
0
220
0
230
1
100
AcDbArc
50
268.55132581329843
51
279.21056266409971
0
SPLINE
5
103
100
AcDbEntity
8
0
100
AcDbSpline
70
0
71
3
72
18
73
14
74
0
42
0.000000001
43
0.0000000001
44
0.0000000001
40
-35.689297132753701
40
-35.689297132753701
40
-35.689297132753701
40
-35.689297132753701
40
-32.297636363275572
40
-32.297636363275572
40
-25.05003327078775
40
-25.05003327078775
40
-16.192483430707227
40
-16.192483430707227
40
-8.286355634435294
40
-8.286355634435294
40
-3.7642289096961394
40
-3.7642289096961394
40
0
40
0
40
0
40
0
10
136.2937179901426
20
12.03035083150928
30
0
10
149.23912657629626
20
14.129498713648431
30
0
10
163.47748534964364
20
14.169309952705586
30
0
10
192.48962837995009
20
13.265565469315346
30
0
10
206.20861952888214
20
10.524202312279382
30
0
10
239.20519384399512
20
3.5507399862284608
30
0
10
254.77549535964957
20
0.062587026282272806
30
0
10
292.18358014668303
20
2.2205834126396953
30
0
10
308.25629547016769
20
6.5446777905815647
30
0
10
336.24109951276756
20
11.46204762380906
30
0
10
347.22640212866224
20
12.915144956006445
30
0
10
375.18422538032047
20
13.701784455276314
30
0
10
390.02064550497118
20
13.321784066907547
30
0
10
402.47903169045503
20
11.829602541633124
30
0
0
ARC
5
104
100
AcDbEntity
8
0
100
AcDbCircle
10
403.60523517462263
20
21.232398174434849
30
0
40
9.4699999999992901
210
0
220
0
230
1
100
AcDbArc
50
263.17003376875255
51
270.98284849570024
0
SPLINE
5
105
100
AcDbEntity
8
0
100
AcDbSpline
70
0
71
3
72
30
73
26
74
0
42
0.000000001
43
0.0000000001
44
0.0000000001
40
-8.2045269797628357
40
-8.2045269797628357
40
-8.2045269797628357
40
-8.2045269797628357
40
-7.5943805459250076
40
-7.5943805459250076
40
-7.1953750547584256
40
-7.1953750547584256
40
-6.8894070624633095
40
-6.8894070624633095
40
-6.5428579857169771
40
-6.5428579857169771
40
-5.9676860160265059
40
-5.9676860160265059
40
-4.156647077820951
40
-4.156647077820951
40
-2.8267217594689384
40
-2.8267217594689384
40
-1.8875789591493821
40
-1.8875789591493821
40
-1.4202758804396913
40
-1.4202758804396913
40
-1.0533817424255336
40
-1.0533817424255336
40
-0.64246135683468841
40
-0.64246135683468841
40
0
40
0
40
0
40
0
10
403.76767504138223
20
11.763791450651572
30
0
10
405.70722464524567
20
11.763794527355875
30
0
10
407.78189851672346
20
11.911812092738623
30
0
10
410.91165568420888
20
12.646962121805947
30
0
10
412.14836406321467
20
13.082187807472605
30
0
10
414.07432353513803
20
14.250222571597252
30
0
10
414.80332985597107
20
14.876792113083706
30
0
10
416.07653488855101
20
16.530724759026736
30
0
10
416.5260068256498
20
17.525595444256503
30
0
10
417.29818866619007
20
20.367944273985948
30
0
10
417.37648750146809
20
22.470585735769113
30
0
10
416.62145951989567
20
32.551782854070332
30
0
10
413.50495460338067
20
42.918389221510438
30
0
10
412.54062690223697
20
64.160696153519851
30
0
10
413.64843577445987
20
71.188123548318003
30
0
10
415.78726941656737
20
82.485365419046957
30
0
10
416.66828783368737
20
86.552182960453905
30
0
10
416.91674776233822
20
91.801497236026407
30
0
10
416.82495277071496
20
93.44712708011528
30
0
10
416.13760691527551
20
96.157128291967254
30
0
10
415.65650620692617
20
97.26087549690908
30
0
10
414.15089259643071
20
99.387488296320583
30
0
10
413.13380772615466
20
100.29043573657732
30
0
10
410.15345632766417
20
102.16845268614026
30
0
10
407.99527961674346
20
102.88539809542158
30
0
10
405.90395112053193
20
103.34640732538355
30
0
0
ARC
5
106
100
AcDbEntity
8
0
100
AcDbCircle
10
402.88950139526349
20
90.156487202269744
30
0
40
13.53000000001086
210
0
220
-0
230
1
100
AcDbArc
50
77.126604991815768
51
78.831263163057741
0
SPLINE
5
107
100
AcDbEntity
8
0
100
AcDbSpline
70
0
71
3
72
16
73
12
74
0
42
0.000000001
43
0.0000000001
44
0.0000000001
40
-29.702972671887402
40
-29.702972671887402
40
-29.702972671887402
40
-29.702972671887402
40
-25.242889721455985
40
-25.242889721455985
40
-19.258841904367959
40
-19.258841904367959
40
-12.060997201123429
40
-12.060997201123429
40
-3.938633359216869
40
-3.938633359216869
40
0
40
0
40
0
40
0
10
405.51024979787178
20
103.43024242867493
30
0
10
389.20766189286752
20
106.6489985742929
30
0
10
373.24030095716864
20
105.93266764290517
30
0
10
341.95583263031881
20
102.14406250766025
30
0
10
324.91710741606056
20
97.896766895114155
30
0
10
285.0431237872981
20
91.009964254021355
30
0
10
266.12545305627765
20
89.676518327686594
30
0
10
216.09119739763798
20
95.668200062654591
30
0
10
192.60669726398842
20
102.98216409917096
30
0
10
157.99898205547191
20
106.4506621487991
30
0
10
145.51571185844949
20
106.54677279978131
30
0
10
132.73275104160675
20
103.55332646507007
30
0
0
CIRCLE
5
108
100
AcDbEntity
8
0
100
AcDbCircle
10
127.52659378309021
20
17.665809658180898
30
0
40
0.94999999999998852
210
0
220
0
230
1
0
CIRCLE
5
109
100
AcDbEntity
8
0
100
AcDbCircle
10
356.25034393116096
20
99.818129625754054
30
0
40
0.94999999999998852
210
0
220
0
230
1
0
CIRCLE
5
110
100
AcDbEntity
8
0
100
AcDbCircle
10
408.85403986868738
20
91.457837725142582
30
0
40
0.49999999999997158
210
0
220
0
230
1
0
CIRCLE
5
111
100
AcDbEntity
8
0
100
AcDbCircle
10
408.85403986868738
20
79.957837725142582
30
0
40
0.50000000000004263
210
0
220
0
230
1
0
CIRCLE
5
112
100
AcDbEntity
8
0
100
AcDbCircle
10
265.53503986868702
20
4.9118377251426715
30
0
40
0.94999999999998852
210
0
220
0
230
1
0
CIRCLE
5
113
100
AcDbEntity
8
0
100
AcDbCircle
10
134.83003986868772
20
99.844763139028629
30
0
40
0.94999999999998852
210
0
220
0
230
1
0
LWPOLYLINE
5
114
100
AcDbEntity
8
0
100
AcDbPolyline
90
31
70
1
43
0.0
10
255.40941980761437
20
8.5768151672878208
42
-0.41422432189786357
10
254.12468241235274
20
7.6086429775597253
10
193.97754061175294
20
16.061281512689952
42
-0.41422975412204782
10
193.00941855462662
20
17.346075364390238
10
195.50317342203769
20
35.083978444127467
10
180.1240398686877
20
37.245798941524399
10
180.1240398686877
20
19.129537256216427
42
-0.41421356237308593
10
178.98653986868771
20
17.992037256216449
10
132.53853986868771
20
17.992037256216413
42
-0.41421356237308593
10
131.40103986868775
20
19.129537256216427
10
131.40103986868775
20
37.230937256216414
10
130.44253986868773
20
37.230937256216421
42
-0.4142135623730962
10
129.30503986868774
20
38.368437256216417
10
129.30503986868774
20
56.244137256216426
42
-0.41421356237309731
10
130.44253986868773
20
57.381637256216436
10
132.25703986868774
20
57.381637256216436
10
132.25703986868774
20
75.485637256216407
42
-0.41421356237309503
10
133.39453986868776
20
76.623137256216424
10
134.83003986868772
20
76.623137256216424
10
134.83003986868772
20
94.725837256216437
42
-0.41421356237310419
10
135.96753986868771
20
95.863337256216425
10
175.07770705929318
20
95.863337256216397
42
-0.35500112737467365
10
176.30598026798356
20
96.604324158368513
10
250.73640857395986
20
86.159313896211643
42
-0.41407102073690499
10
251.70486832426022
20
84.875320615791054
10
249.22196624431024
20
67.119542471834166
10
252.7986015219858
20
66.616857903196589
42
-0.41420498386103
10
253.76671919505341
20
65.332145921173094
10
251.27416046141752
20
47.593649524732349
10
259.57850066122086
20
46.425423003946364
42
-0.41416145938991827
10
260.54647828151388
20
45.140755159588608
0
LWPOLYLINE
5
115
100
AcDbEntity
8
0
100
AcDbPolyline
90
32
70
1
43
0.0
10
274.78769075307241
20
7.6085893230114898
10
339.64841979230158
20
16.725141416419582
42
0.41419860670695369
10
340.61652953852621
20
18.009837442762759
10
338.1242021206707
20
35.748350919209464
10
347.59290319968954
20
37.079127256216402
10
358.19003986868779
20
37.079127256216402
10
358.19003986868779
20
18.977727256216372
42
0.41421356237315848
10
359.32753986868772
20
17.840227256216377
10
405.7755398686877
20
17.840227256216341
42
0.41421356237306362
10
406.91303986868775
20
18.977727256216372
10
406.91303986868775
20
37.079127256216431
10
407.87453986868769
20
37.07912725621636
42
0.41421356237303675
10
409.01203986868768
20
38.216627256216412
10
409.01203986868774
20
56.092327256216379
42
0.41421356237312246
10
407.87453986868769
20
57.229827256216367
10
406.34503986868776
20
57.229827256216367
10
406.34503986868776
20
75.333827256216352
42
0.41421356237317053
10
405.20753986868783
20
76.471327256216341
10
403.68204807810355
20
76.471327256216341
10
403.68204807810332
20
94.567696277171905
42
0.41420763486320489
10
402.53907120993972
20
95.71069627693781
10
346.15505018988404
20
95.711837367011796
42
0.0058927961446599069
10
345.94533628185047
20
95.694261584598976
10
268.74296250054493
20
84.819185973335863
42
0.41413444582999315
10
267.77520698712152
20
83.534443693819114
10
270.26371052243928
20
65.833892970132325
42
0.4141985110385602
10
271.54843773564903
20
64.865825047306345
10
275.13687971864607
20
65.370132632395155
10
277.63714130925763
20
47.595067782749965
10
269.33025765839011
20
46.426723142884043
42
0.41419669678084126
10
268.36226273474279
20
45.141947164907357
10
273.50294236997752
20
8.5766542704899802
42
0.41420401556786335
0
CIRCLE
5
116
100
AcDbEntity
8
0
100
AcDbCircle
10
410.75831038404567
20
17.512086630522816
30
0
40
0.94999999999998852
210
0
220
0
230
1
0
CIRCLE
5
117
100
AcDbEntity
8
0
100
AcDbCircle
10
403.54407325650385
20
99.698919533367814
30
0
40
0.94999999999998852
210
0
220
0
230
1
0
CIRCLE
5
118
100
AcDbEntity
8
0
100
AcDbCircle
10
408.85403986868738
20
85.707837725142596
30
0
40
0.49999999999997158
210
0
220
0
230
1
0
CIRCLE
5
119
100
AcDbEntity
8
0
100
AcDbCircle
10
180.52377119998098
20
99.823873216962312
30
0
40
0.94999999999998852
210
0
220
0
230
1
0
ENDSEC
0
SECTION
2
OBJECTS
0
DICTIONARY
5
C
100
AcDbDictionary
3
ACAD_GROUP
350
D
3
ACAD_MLINESTYLE
350
17
0
DICTIONARY
5
D
100
AcDbDictionary
0
DICTIONARY
5
1A
330
C
100
AcDbDictionary
0
DICTIONARY
5
17
100
AcDbDictionary
0
ENDSEC
0
EOF
