0
SECTION
2
HEADER
9
$INSUNITS
70
4
9
$ACADVER
1
AC1014
9
$HANDSEED
5
FFFF
0
ENDSEC
0
SECTION
2
TABLES
0
TABLE
2
VPORT
5
8
100
AcDbSymbolTable
0
ENDTAB
0
TABLE
2
LTYPE
5
5
100
AcDbSymbolTable
0
LTYPE
5
14
100
AcDbSymbolTableRecord
100
AcDbLinetypeTableRecord
2
BYBLOCK
70
0
0
LTYPE
5
15
100
AcDbSymbolTableRecord
100
AcDbLinetypeTableRecord
2
BYLAYER
70
0
0
ENDTAB
0
TABLE
2
LAYER
5
2
100
AcDbSymbolTable
70
2
0
LAYER
5
50
100
AcDbSymbolTableRecord
100
AcDbLayerTableRecord
2
0
70
0
6
CONTINUOUS
0
ENDTAB
0
TABLE
2
STYLE
5
3
100
AcDbSymbolTable
70
1
0
STYLE
5
11
100
AcDbSymbolTableRecord
100
AcDbTextStyleTableRecord
2
STANDARD
70
0
0
ENDTAB
0
TABLE
2
VIEW
5
6
100
AcDbSymbolTable
70
0
0
ENDTAB
0
TABLE
2
UCS
5
7
100
AcDbSymbolTable
70
0
0
ENDTAB
0
TABLE
2
APPID
5
9
100
AcDbSymbolTable
70
2
0
APPID
5
12
100
AcDbSymbolTableRecord
100
AcDbRegAppTableRecord
2
ACAD
70
0
0
ENDTAB
0
TABLE
2
DIMSTYLE
5
A
100
AcDbSymbolTable
70
1
0
ENDTAB
0
TABLE
2
BLOCK_RECORD
5
1
100
AcDbSymbolTable
70
1
0
BLOCK_RECORD
5
1F
100
AcDbSymbolTableRecord
100
AcDbBlockTableRecord
2
*MODEL_SPACE
0
BLOCK_RECORD
5
1B
100
AcDbSymbolTableRecord
100
AcDbBlockTableRecord
2
*PAPER_SPACE
0
ENDTAB
0
ENDSEC
0
SECTION
2
BLOCKS
0
BLOCK
5
20
100
AcDbEntity
100
AcDbBlockBegin
2
*MODEL_SPACE
0
ENDBLK
5
21
100
AcDbEntity
100
AcDbBlockEnd
0
BLOCK
5
1C
100
AcDbEntity
100
AcDbBlockBegin
2
*PAPER_SPACE
0
ENDBLK
5
1D
100
AcDbEntity
100
AcDbBlockEnd
0
ENDSEC
0
SECTION
2
ENTITIES
0
SPLINE
5
100
100
AcDbEntity
8
0
100
AcDbSpline
70
0
71
3
72
14
73
10
74
0
42
0.000000001
43
0.0000000001
44
0.0000000001
40
-22.636085612984708
40
-22.636085612984708
40
-22.636085612984708
40
-22.636085612984708
40
-17.043718502080743
40
-17.043718502080743
40
-10.295633202138083
40
-10.295633202138083
40
-5.6830387588748055
40
-5.6830387588748055
40
0
40
0
40
0
40
0
10
405.51024979787178
20
103.43024242867493
30
0
10
382.55097017645488
20
107.96328483954963
30
0
10
359.85136164795392
20
104.84779311817675
30
0
10
317.78243009218113
20
97.048458840321032
30
0
10
295.61681924198638
20
91.292670634796323
30
0
10
251.05294824206166
20
90.790144608955217
30
0
10
235.02664493948731
20
93.181573256746304
30
0
10
198.25439376521979
20
100.37190944558787
30
0
10
179.40061687148261
20
105.19062227076714
30
0
10
160.47222947896205
20
105.94621695601334
30
0
0
LINE
5
101
100
AcDbEntity
8
0
100
AcDbLine
10
160.47222947896205
20
105.94621695601334
30
0
11
160.47222947900028
21
96.537691292683405
31
0
0
ARC
5
102
100
AcDbEntity
8
0
100
AcDbCircle
10
160.27222947900029
20
96.537691292682581
30
0
40
0.19999999999999574
210
-0
220
0
230
1
100
AcDbArc
50
-90
51
0
0
LINE
5
103
100
AcDbEntity
8
0
100
AcDbLine
10
160.27222947900029
20
96.337691292682592
30
0
11
148.67222947896474
21
96.337691292682592
31
0
0
ARC
5
104
100
AcDbEntity
8
0
100
AcDbCircle
10
148.67222947896474
20
96.537691292682581
30
0
40
0.19999999999999574
210
0
220
0
230
1
100
AcDbArc
50
180
51
270
0
LINE
5
105
100
AcDbEntity
8
0
100
AcDbLine
10
148.47222947896475
20
96.537691292682581
30
0
11
148.47222947896478
21
105.83266840044152
31
0
0
SPLINE
5
106
100
AcDbEntity
8
0
100
AcDbSpline
70
0
71
3
72
10
73
6
74
0
42
0.000000001
43
0.0000000001
44
0.0000000001
40
-1.5927479151026018
40
-1.5927479151026018
40
-1.5927479151026018
40
-1.5927479151026018
40
-0.78431678997027832
40
-0.78431678997027832
40
0
40
0
40
0
40
0
10
148.47222947896455
20
105.83266840044297
30
0
10
145.78166888293725
20
105.66374845286961
30
0
10
143.1024722093037
20
105.39194151423276
30
0
10
137.84691756140984
20
104.63081869583067
30
0
10
135.27827632405533
20
104.14942414821564
30
0
10
132.73275104160675
20
103.55332646507007
30
0
0
ARC
5
107
100
AcDbEntity
8
0
100
AcDbCircle
10
129.64668343044718
20
116.73180937091907
30
0
40
13.535000000014829
210
0
220
0
230
1
100
AcDbArc
50
282.50973313683784
51
283.17973283260119
0
SPLINE
5
108
100
AcDbEntity
8
0
100
AcDbSpline
70
0
71
3
72
30
73
26
74
0
42
0.000000001
43
0.0000000001
44
0.0000000001
40
-11.888036356763163
40
-11.888036356763163
40
-11.888036356763163
40
-11.888036356763163
40
-11.297083943873862
40
-11.297083943873862
40
-10.790713465587473
40
-10.790713465587473
40
-10.238034756020284
40
-10.238034756020284
40
-9.6295477130328653
40
-9.6295477130328653
40
-7.4232852399423983
40
-7.4232852399423983
40
-4.4026394906493405
40
-4.4026394906493405
40
-2.6842893107569221
40
-2.6842893107569221
40
-1.9838733744903623
40
-1.9838733744903623
40
-1.5392291848282806
40
-1.5392291848282806
40
-1.1183297484591055
40
-1.1183297484591055
40
-0.64767109587064975
40
-0.64767109587064975
40
0
40
0
40
0
40
0
10
132.57843832310692
20
103.51814075657252
30
0
10
131.26840248919467
20
103.23084925632841
30
0
10
129.95075686052442
20
102.84850866381575
30
0
10
127.64826918976971
20
101.89607752331953
30
0
10
126.61929898539144
20
101.35105568755421
30
0
10
124.68120578133852
20
99.924355036188231
30
0
10
123.81917342920553
20
99.03694825033547
30
0
10
122.40959346115737
20
96.802124541186544
30
0
10
121.96516896852528
20
95.517568235979127
30
0
10
120.86062681607457
20
89.208422115070334
30
0
10
122.62783341783644
20
82.817059653975747
30
0
10
125.89430364336397
20
63.834733928480361
30
0
10
125.99929081593376
20
55.200416814873385
30
0
10
122.91265293720934
20
36.113291083415135
30
0
10
121.48037839097742
20
30.017943626265399
30
0
10
120.94581200649461
20
23.084105182899506
30
0
10
120.96051030059157
20
21.220838226800602
30
0
10
121.48518480411995
20
18.518406671200076
30
0
10
121.82295015588636
20
17.503119993785774
30
0
10
122.88058412476741
20
15.706880140837589
30
0
10
123.54384551774588
20
14.975732223814218
30
0
10
125.26142944009098
20
13.690275066475301
30
0
10
126.42003041020352
20
13.113857781026635
30
0
10
130.02185599237026
20
12.098828644300108
30
0
10
132.37960218240698
20
11.913625741918912
30
0
10
134.53850455967651
20
11.911278843070164
30
0
0
ARC
5
109
100
AcDbEntity
8
0
100
AcDbCircle
10
134.77791980084291
20
21.378251978254454
30
0
40
9.4700000000002031
210
0
220
0
230
1
100
AcDbArc
50
268.55132581329843
51
279.21056266409971
0
SPLINE
5
110
100
AcDbEntity
8
0
100
AcDbSpline
70
0
71
3
72
18
73
14
74
0
42
0.000000001
43
0.0000000001
44
0.0000000001
40
-35.689297132753701
40
-35.689297132753701
40
-35.689297132753701
40
-35.689297132753701
40
-32.297636363275572
40
-32.297636363275572
40
-25.05003327078775
40
-25.05003327078775
40
-16.192483430707227
40
-16.192483430707227
40
-8.286355634435294
40
-8.286355634435294
40
-3.7642289096961394
40
-3.7642289096961394
40
0
40
0
40
0
40
0
10
136.2937179901426
20
12.03035083150928
30
0
10
149.23912657629626
20
14.129498713648431
30
0
10
163.47748534964364
20
14.169309952705586
30
0
10
192.48962837995009
20
13.265565469315346
30
0
10
206.20861952888214
20
10.524202312279382
30
0
10
239.20519384399512
20
3.5507399862284608
30
0
10
254.77549535964957
20
0.062587026282272806
30
0
10
292.18358014668303
20
2.2205834126396953
30
0
10
308.25629547016769
20
6.5446777905815647
30
0
10
336.24109951276756
20
11.46204762380906
30
0
10
347.22640212866224
20
12.915144956006445
30
0
10
375.18422538032047
20
13.701784455276314
30
0
10
390.02064550497118
20
13.321784066907547
30
0
10
402.47903169045503
20
11.829602541633124
30
0
0
ARC
5
111
100
AcDbEntity
8
0
100
AcDbCircle
10
403.60523517462263
20
21.232398174434849
30
0
40
9.4699999999992901
210
0
220
0
230
1
100
AcDbArc
50
263.17003376875255
51
270.98284849570024
0
SPLINE
5
112
100
AcDbEntity
8
0
100
AcDbSpline
70
0
71
3
72
30
73
26
74
0
42
0.000000001
43
0.0000000001
44
0.0000000001
40
-8.2045269797628357
40
-8.2045269797628357
40
-8.2045269797628357
40
-8.2045269797628357
40
-7.5943805459250076
40
-7.5943805459250076
40
-7.1953750547584256
40
-7.1953750547584256
40
-6.8894070624633095
40
-6.8894070624633095
40
-6.5428579857169771
40
-6.5428579857169771
40
-5.9676860160265059
40
-5.9676860160265059
40
-4.156647077820951
40
-4.156647077820951
40
-2.8267217594689384
40
-2.8267217594689384
40
-1.8875789591493821
40
-1.8875789591493821
40
-1.4202758804396913
40
-1.4202758804396913
40
-1.0533817424255336
40
-1.0533817424255336
40
-0.64246135683468841
40
-0.64246135683468841
40
0
40
0
40
0
40
0
10
403.76767504138223
20
11.763791450651572
30
0
10
405.70722464524567
20
11.763794527355875
30
0
10
407.78189851672346
20
11.911812092738623
30
0
10
410.91165568420888
20
12.646962121805947
30
0
10
412.14836406321467
20
13.082187807472605
30
0
10
414.07432353513803
20
14.250222571597252
30
0
10
414.80332985597107
20
14.876792113083706
30
0
10
416.07653488855101
20
16.530724759026736
30
0
10
416.5260068256498
20
17.525595444256503
30
0
10
417.29818866619007
20
20.367944273985948
30
0
10
417.37648750146809
20
22.470585735769113
30
0
10
416.62145951989567
20
32.551782854070332
30
0
10
413.50495460338067
20
42.918389221510438
30
0
10
412.54062690223697
20
64.160696153519851
30
0
10
413.64843577445987
20
71.188123548318003
30
0
10
415.78726941656737
20
82.485365419046957
30
0
10
416.66828783368737
20
86.552182960453905
30
0
10
416.91674776233822
20
91.801497236026407
30
0
10
416.82495277071496
20
93.44712708011528
30
0
10
416.13760691527551
20
96.157128291967254
30
0
10
415.65650620692617
20
97.26087549690908
30
0
10
414.15089259643071
20
99.387488296320583
30
0
10
413.13380772615466
20
100.29043573657732
30
0
10
410.15345632766417
20
102.16845268614026
30
0
10
407.99527961674346
20
102.88539809542158
30
0
10
405.90395112053193
20
103.34640732538355
30
0
0
ARC
5
113
100
AcDbEntity
8
0
100
AcDbCircle
10
402.88950139526349
20
90.156487202269744
30
0
40
13.53000000001086
210
0
220
-0
230
1
100
AcDbArc
50
77.126604991815768
51
78.831263163057457
0
CIRCLE
5
114
100
AcDbEntity
8
0
100
AcDbCircle
10
134.83003986868772
20
99.844763139028629
30
0
40
0.94999999999998852
210
0
220
0
230
1
0
CIRCLE
5
115
100
AcDbEntity
8
0
100
AcDbCircle
10
356.25034393116096
20
99.818129625754054
30
0
40
0.94999999999998852
210
0
220
0
230
1
0
CIRCLE
5
116
100
AcDbEntity
8
0
100
AcDbCircle
10
127.52659378309021
20
17.665809658180898
30
0
40
0.94999999999998852
210
0
220
0
230
1
0
CIRCLE
5
117
100
AcDbEntity
8
0
100
AcDbCircle
10
265.53503986868702
20
4.9118377251426715
30
0
40
0.94999999999998852
210
0
220
0
230
1
0
CIRCLE
5
118
100
AcDbEntity
8
0
100
AcDbCircle
10
403.54407325650385
20
99.698919533367814
30
0
40
0.94999999999998852
210
0
220
0
230
1
0
CIRCLE
5
119
100
AcDbEntity
8
0
100
AcDbCircle
10
266.08857073751233
20
23.139662367465057
30
0
40
1.6316267665651552
210
0
220
0
230
1
0
CIRCLE
5
120
100
AcDbEntity
8
0
100
AcDbCircle
10
410.75831038404567
20
17.512086630522816
30
0
40
0.94999999999998852
210
0
220
0
230
1
0
CIRCLE
5
121
100
AcDbEntity
8
0
100
AcDbCircle
10
180.52377119998098
20
99.823873216962312
30
0
40
0.94999999999998852
210
0
220
0
230
1
0
ENDSEC
0
SECTION
2
OBJECTS
0
DICTIONARY
5
C
100
AcDbDictionary
3
ACAD_GROUP
350
D
3
ACAD_MLINESTYLE
350
17
0
DICTIONARY
5
D
100
AcDbDictionary
0
DICTIONARY
5
1A
330
C
100
AcDbDictionary
0
DICTIONARY
5
17
100
AcDbDictionary
0
ENDSEC
0
EOF
