0
SECTION
2
HEADER
9
$INSUNITS
70
4
9
$ACADVER
1
AC1014
9
$HANDSEED
5
FFFF
0
ENDSEC
0
SECTION
2
TABLES
0
TABLE
2
VPORT
5
8
100
AcDbSymbolTable
0
ENDTAB
0
TABLE
2
LTYPE
5
5
100
AcDbSymbolTable
0
LTYPE
5
14
100
AcDbSymbolTableRecord
100
AcDbLinetypeTableRecord
2
BYBLOCK
70
0
0
LTYPE
5
15
100
AcDbSymbolTableRecord
100
AcDbLinetypeTableRecord
2
BYLAYER
70
0
0
ENDTAB
0
TABLE
2
LAYER
5
2
100
AcDbSymbolTable
70
2
0
LAYER
5
50
100
AcDbSymbolTableRecord
100
AcDbLayerTableRecord
2
0
70
0
6
CONTINUOUS
0
ENDTAB
0
TABLE
2
STYLE
5
3
100
AcDbSymbolTable
70
1
0
STYLE
5
11
100
AcDbSymbolTableRecord
100
AcDbTextStyleTableRecord
2
STANDARD
70
0
0
ENDTAB
0
TABLE
2
VIEW
5
6
100
AcDbSymbolTable
70
0
0
ENDTAB
0
TABLE
2
UCS
5
7
100
AcDbSymbolTable
70
0
0
ENDTAB
0
TABLE
2
APPID
5
9
100
AcDbSymbolTable
70
2
0
APPID
5
12
100
AcDbSymbolTableRecord
100
AcDbRegAppTableRecord
2
ACAD
70
0
0
ENDTAB
0
TABLE
2
DIMSTYLE
5
A
100
AcDbSymbolTable
70
1
0
ENDTAB
0
TABLE
2
BLOCK_RECORD
5
1
100
AcDbSymbolTable
70
1
0
BLOCK_RECORD
5
1F
100
AcDbSymbolTableRecord
100
AcDbBlockTableRecord
2
*MODEL_SPACE
0
BLOCK_RECORD
5
1B
100
AcDbSymbolTableRecord
100
AcDbBlockTableRecord
2
*PAPER_SPACE
0
ENDTAB
0
ENDSEC
0
SECTION
2
BLOCKS
0
BLOCK
5
20
100
AcDbEntity
100
AcDbBlockBegin
2
*MODEL_SPACE
0
ENDBLK
5
21
100
AcDbEntity
100
AcDbBlockEnd
0
BLOCK
5
1C
100
AcDbEntity
100
AcDbBlockBegin
2
*PAPER_SPACE
0
ENDBLK
5
1D
100
AcDbEntity
100
AcDbBlockEnd
0
ENDSEC
0
SECTION
2
ENTITIES
0
SPLINE
5
100
100
AcDbEntity
8
0
100
AcDbSpline
70
0
71
3
72
16
73
12
74
0
42
0.000000001
43
0.0000000001
44
0.0000000001
40
0
40
0
40
0
40
0
40
0.23438668403217047
40
0.23438668403217047
40
0.46877336806432551
40
0.46877336806432551
40
0.70316005209648558
40
0.70316005209648558
40
0.83415079833072592
40
0.83415079833072592
40
0.96514154456497381
40
0.96514154456497381
40
0.96514154456497381
40
0.96514154456497381
10
416.85078433546767
20
91.875777491325522
30
0
10
416.87707965694932
20
91.094931171990382
30
0
10
416.75060693121912
20
90.316414108055824
30
0
10
416.20636292632264
20
88.85167927316644
30
0
10
415.7937949164791
20
88.179465165575323
30
0
10
414.73421131431951
20
87.031017402967677
30
0
10
414.0973259187578
20
86.565763534514105
30
0
10
412.99344517733948
20
86.051187934481547
30
0
10
412.57873725543675
20
85.910458073973814
30
0
10
411.72615351327795
20
85.721502199330629
30
0
10
411.29081936552109
20
85.67383948933329
30
0
10
410.85418354474029
20
85.67383948933329
30
0
0
SPLINE
5
101
100
AcDbEntity
8
0
100
AcDbSpline
70
4
71
5
72
16
73
10
74
0
42
0.000000001
43
0.0000000001
44
0.0000000001
40
-0.21031581488519513
40
-0.21031581488519513
40
-0.21031581488519513
40
-0.21031581488519513
40
-0.21031581488519513
40
-0.21031581488519513
40
-0.20000000000000001
40
-0.15000000000000002
40
-0.10000000000000001
40
-0.050000000000000003
40
0
40
0
40
0
40
0
40
0
40
0
41
1
41
1
41
1
41
1
41
1
41
1
41
1
41
1
41
1
41
1
10
416.85078433546767
20
91.875777491325309
30
0
10
416.84481442503784
20
92.053055513543782
30
0
10
416.79815058197096
20
93.080402147268813
30
0
10
416.58455604422409
20
94.860983286424187
30
0
10
415.89604741656433
20
97.184497988689827
30
0
10
414.18157322791438
20
99.725724061141761
30
0
10
411.52330333901085
20
101.543917008836
30
0
10
408.94172139108014
20
102.57426196112833
30
0
10
406.95998860178742
20
103.11361605087718
30
0
10
405.90395112053193
20
103.34640732538355
30
0
0
ARC
5
102
100
AcDbEntity
8
0
100
AcDbCircle
10
402.88950139526349
20
90.156487202269744
30
0
40
13.53000000001086
210
0
220
-0
230
1
100
AcDbArc
50
77.126604991816251
51
78.831263163057741
0
SPLINE
5
103
100
AcDbEntity
8
0
100
AcDbSpline
70
4
71
5
72
31
73
25
74
0
42
0.000000001
43
0.0000000001
44
0.0000000001
40
-1
40
-1
40
-1
40
-1
40
-1
40
-1
40
-0.95000000000000029
40
-0.90000000000000024
40
-0.8500000000000002
40
-0.80000000000000016
40
-0.75000000000000011
40
-0.70000000000000007
40
-0.65000000000000002
40
-0.59999999999999998
40
-0.54999999999999993
40
-0.49999999999999994
40
-0.44999999999999996
40
-0.39999999999999997
40
-0.34999999999999998
40
-0.29999999999999999
40
-0.25
40
-0.20000000000000001
40
-0.15000000000000002
40
-0.10000000000000001
40
-0.050000000000000003
40
0
40
0
40
0
40
0
40
0
40
0
41
1
41
1
41
1
41
1
41
1
41
1
41
1
41
1
41
1
41
1
41
1
41
1
41
1
41
1
41
1
41
1
41
1
41
1
41
1
41
1
41
1
41
1
41
1
41
1
41
1
10
405.51024979787178
20
103.43024242867493
30
0
10
403.30137144658227
20
103.86635973775279
30
0
10
398.81563247709221
20
104.63354081860233
30
0
10
391.88307950409893
20
105.46913617813628
30
0
10
382.23769446187134
20
105.94866334073366
30
0
10
369.5473092164026
20
105.49384398601914
30
0
10
356.27354097157217
20
104.04257511483978
30
0
10
342.47438176436282
20
101.7411759833236
30
0
10
328.20829136417149
20
98.877982493675376
30
0
10
313.53247321427625
20
95.882316688583572
30
0
10
298.51013326493972
20
93.230230027697729
30
0
10
283.21596561286293
20
91.373976365175906
30
0
10
267.74331272645298
20
90.659163943765776
30
0
10
252.21031037973549
20
91.250794720169154
30
0
10
236.7695016024592
20
93.036338192836268
30
0
10
221.59193254702819
20
95.692033228606164
30
0
10
206.84802543715492
20
98.769597585104876
30
0
10
192.68837902536529
20
101.77485952070761
30
0
10
179.22627962076496
20
104.24238695179243
30
0
10
166.51264118328464
20
105.82539538291387
30
0
10
154.53181685464449
20
106.33510404302308
30
0
10
145.49653819214524
20
105.81352660647889
30
0
10
139.00633903821534
20
104.88994490633056
30
0
10
134.80331820936468
20
104.03820096229389
30
0
10
132.73275104160675
20
103.55332646507007
30
0
0
ARC
5
104
100
AcDbEntity
8
0
100
AcDbCircle
10
129.64668343044718
20
116.73180937091907
30
0
40
13.535000000014829
210
0
220
0
230
1
100
AcDbArc
50
282.50973313683784
51
283.17973283260102
0
SPLINE
5
105
100
AcDbEntity
8
0
100
AcDbSpline
70
4
71
5
72
16
73
10
74
0
42
0.000000001
43
0.0000000001
44
0.0000000001
40
0
40
0
40
0
40
0
40
0
40
0
40
0.050000000000000003
40
0.10000000000000001
40
0.15000000000000002
40
0.20000000000000001
40
0.21305563441869543
40
0.21305563441869543
40
0.21305563441869543
40
0.21305563441869543
40
0.21305563441869543
40
0.21305563441869543
41
1
41
1
41
1
41
1
41
1
41
1
41
1
41
1
41
1
41
1
10
132.57843832310692
20
103.51814075657252
30
0
10
131.51889674955481
20
103.28578277035794
30
0
10
129.52918185475409
20
102.74763129321713
30
0
10
126.93270556765201
20
101.72009837902336
30
0
10
124.24968145008052
20
99.90736778823279
30
0
10
122.48396145145824
20
97.339884171503087
30
0
10
121.7738968209553
20
94.974798020422725
30
0
10
121.555709158336
20
93.143615974206924
30
0
10
121.51051921350344
20
92.063355247582521
30
0
10
121.504359801878
20
91.83716718225574
30
0
0
SPLINE
5
106
100
AcDbEntity
8
0
100
AcDbSpline
70
0
71
3
72
16
73
12
74
0
42
0.000000001
43
0.0000000001
44
0.0000000001
40
0
40
0
40
0
40
0
40
0.23438668403215701
40
0.23438668403215701
40
0.46877336806431463
40
0.46877336806431463
40
0.70316005209647403
40
0.70316005209647403
40
0.83221373651037933
40
0.83221373651037933
40
0.96126742092429529
40
0.96126742092429529
40
0.96126742092429529
40
0.96126742092429529
10
127.50213639531032
20
85.673839489333375
30
0
10
126.72084744853646
20
85.673839489333375
30
0
10
125.94702804992913
20
85.826442593921115
30
0
10
124.50144029623608
20
86.419675869940491
30
0
10
123.84349254798182
20
86.854634407916237
30
0
10
122.73135712034875
20
87.952270260103774
30
0
10
122.28780206181874
20
88.604453577310863
30
0
10
121.81320009546396
20
89.719086895363176
30
0
10
121.6877273555577
20
90.131859772934376
30
0
10
121.52721997857788
20
90.977113043442216
30
0
10
121.49264977935658
20
91.407147644659176
30
0
10
121.50435980187795
20
91.837167182255826
30
0
0
LINE
5
107
100
AcDbEntity
8
0
100
AcDbLine
10
127.50213639531032
20
85.673839489333375
30
0
11
410.85418354474029
21
85.67383948933329
31
0
0
LWPOLYLINE
5
108
100
AcDbEntity
8
0
100
AcDbPolyline
90
3
70
1
43
0.0
10
196.76438781661261
20
90.643210346819018
10
196.76405033588463
20
90.640810910762525
42
-0.00053593774489894515
10
196.7667918521895
20
90.642872219168297
0
LWPOLYLINE
5
109
100
AcDbEntity
8
0
100
AcDbPolyline
90
3
70
1
43
0.0
10
210.62619335291083
20
88.693547128184932
42
-0.00075612512196680164
10
210.62910322413563
20
88.689680542239614
10
210.62958006219176
20
88.693070787458652
0
LWPOLYLINE
5
110
100
AcDbEntity
8
0
100
AcDbPolyline
90
3
70
1
43
0.0
10
191.76114301702614
20
91.341636217422405
42
-0.00075612512196680164
10
191.76405288825097
20
91.337769631477087
10
191.76452972630713
20
91.341159876696082
0
LWPOLYLINE
5
111
100
AcDbEntity
8
0
100
AcDbPolyline
90
3
70
1
43
0.0
10
177.89933748072795
20
93.291299436056448
10
177.89899999999994
20
93.288899999999927
42
-0.00053593774491182374
10
177.90174151630487
20
93.290961308405741
0
LWPOLYLINE
5
112
100
AcDbEntity
8
0
100
AcDbPolyline
90
3
70
1
43
0.0
10
215.62871055332386
20
87.989942986525151
10
215.62837307259585
20
87.987543550468729
42
-0.00053593774491182374
10
215.63111458890077
20
87.989604858874543
0
CIRCLE
5
113
100
AcDbEntity
8
0
100
AcDbCircle
10
356.25034393116096
20
99.818129625754054
30
0
40
0.94999999999998852
210
0
220
0
230
1
0
CIRCLE
5
114
100
AcDbEntity
8
0
100
AcDbCircle
10
180.52377119998098
20
99.823873216962312
30
0
40
0.94999999999998852
210
0
220
0
230
1
0
CIRCLE
5
115
100
AcDbEntity
8
0
100
AcDbCircle
10
403.54407325650385
20
99.698919533367814
30
0
40
0.94999999999998852
210
0
220
0
230
1
0
CIRCLE
5
116
100
AcDbEntity
8
0
100
AcDbCircle
10
134.83003986868772
20
99.844763139028629
30
0
40
0.94999999999998852
210
0
220
0
230
1
0
ENDSEC
0
SECTION
2
OBJECTS
0
DICTIONARY
5
C
100
AcDbDictionary
3
ACAD_GROUP
350
D
3
ACAD_MLINESTYLE
350
17
0
DICTIONARY
5
D
100
AcDbDictionary
0
DICTIONARY
5
1A
330
C
100
AcDbDictionary
0
DICTIONARY
5
17
100
AcDbDictionary
0
ENDSEC
0
EOF
