0
SECTION
2
HEADER
9
$INSUNITS
70
4
9
$ACADVER
1
AC1014
9
$HANDSEED
5
FFFF
0
ENDSEC
0
SECTION
2
TABLES
0
TABLE
2
VPORT
5
8
100
AcDbSymbolTable
0
ENDTAB
0
TABLE
2
LTYPE
5
5
100
AcDbSymbolTable
0
LTYPE
5
14
100
AcDbSymbolTableRecord
100
AcDbLinetypeTableRecord
2
BYBLOCK
70
0
0
LTYPE
5
15
100
AcDbSymbolTableRecord
100
AcDbLinetypeTableRecord
2
BYLAYER
70
0
0
ENDTAB
0
TABLE
2
LAYER
5
2
100
AcDbSymbolTable
70
2
0
LAYER
5
50
100
AcDbSymbolTableRecord
100
AcDbLayerTableRecord
2
0
70
0
6
CONTINUOUS
0
ENDTAB
0
TABLE
2
STYLE
5
3
100
AcDbSymbolTable
70
1
0
STYLE
5
11
100
AcDbSymbolTableRecord
100
AcDbTextStyleTableRecord
2
STANDARD
70
0
0
ENDTAB
0
TABLE
2
VIEW
5
6
100
AcDbSymbolTable
70
0
0
ENDTAB
0
TABLE
2
UCS
5
7
100
AcDbSymbolTable
70
0
0
ENDTAB
0
TABLE
2
APPID
5
9
100
AcDbSymbolTable
70
2
0
APPID
5
12
100
AcDbSymbolTableRecord
100
AcDbRegAppTableRecord
2
ACAD
70
0
0
ENDTAB
0
TABLE
2
DIMSTYLE
5
A
100
AcDbSymbolTable
70
1
0
ENDTAB
0
TABLE
2
BLOCK_RECORD
5
1
100
AcDbSymbolTable
70
1
0
BLOCK_RECORD
5
1F
100
AcDbSymbolTableRecord
100
AcDbBlockTableRecord
2
*MODEL_SPACE
0
BLOCK_RECORD
5
1B
100
AcDbSymbolTableRecord
100
AcDbBlockTableRecord
2
*PAPER_SPACE
0
ENDTAB
0
ENDSEC
0
SECTION
2
BLOCKS
0
BLOCK
5
20
100
AcDbEntity
100
AcDbBlockBegin
2
*MODEL_SPACE
0
ENDBLK
5
21
100
AcDbEntity
100
AcDbBlockEnd
0
BLOCK
5
1C
100
AcDbEntity
100
AcDbBlockBegin
2
*PAPER_SPACE
0
ENDBLK
5
1D
100
AcDbEntity
100
AcDbBlockEnd
0
ENDSEC
0
SECTION
2
ENTITIES
0
SPLINE
5
100
100
AcDbEntity
8
0
100
AcDbSpline
70
0
71
3
72
14
73
10
74
0
42
0.000000001
43
0.0000000001
44
0.0000000001
40
0
40
0
40
0
40
0
40
0.46877336806431463
40
0.46877336806431463
40
0.93754673612862693
40
0.93754673612862693
40
1.3274025266599492
40
1.3274025266599492
40
1.717258317191277
40
1.717258317191277
40
1.717258317191277
40
1.717258317191277
10
416.4601288789446
20
86.389748936749854
30
0
10
416.23648815241711
20
84.843257909022157
30
0
10
415.7129214665668
20
83.355234185343363
30
0
10
414.1248761738081
20
80.663634133002162
30
0
10
413.0755801454502
20
79.485790967875531
30
0
10
410.79424488414099
20
77.757465251767997
30
0
10
409.6377890801914
20
77.146173544397371
30
0
10
407.17412175418394
20
76.318317899090829
30
0
10
405.88318915146488
20
76.107224097131464
30
0
10
404.58366984969382
20
76.107224097131464
30
0
0
SPLINE
5
101
100
AcDbEntity
8
0
100
AcDbSpline
70
0
71
3
72
16
73
12
74
0
42
0.000000001
43
0.0000000001
44
0.0000000001
40
-2.1984888685035813
40
-2.1984888685035813
40
-2.1984888685035813
40
-2.1984888685035813
40
-1.8875789591507
40
-1.8875789591507
40
-1.4202758804383213
40
-1.4202758804383213
40
-1.0533817424246799
40
-1.0533817424246799
40
-0.64246135683470784
40
-0.64246135683470784
40
0
40
0
40
0
40
0
10
416.46012887894466
20
86.389748936749896
30
0
10
416.64600348505309
20
87.675084640548164
30
0
10
416.77927020534628
20
88.896952803432029
30
0
10
416.91674776233799
20
91.801497236000273
30
0
10
416.82495277071899
20
93.447127080095797
30
0
10
416.13760691527716
20
96.15712829196319
30
0
10
415.65650620692765
20
97.260875496906976
30
0
10
414.15089259642957
20
99.387488296322744
30
0
10
413.13380772615091
20
100.29043573657985
30
0
10
410.15345632766383
20
102.16845268614034
30
0
10
407.99527961674352
20
102.88539809542156
30
0
10
405.90395112053193
20
103.34640732538355
30
0
0
ARC
5
102
100
AcDbEntity
8
0
100
AcDbCircle
10
402.88950139526349
20
90.156487202269744
30
0
40
13.53000000001086
210
0
220
-0
230
1
100
AcDbArc
50
77.126604991815768
51
78.831263163057741
0
SPLINE
5
103
100
AcDbEntity
8
0
100
AcDbSpline
70
0
71
3
72
16
73
12
74
0
42
0.000000001
43
0.0000000001
44
0.0000000001
40
-29.702972671887402
40
-29.702972671887402
40
-29.702972671887402
40
-29.702972671887402
40
-25.242889721455985
40
-25.242889721455985
40
-19.258841904367959
40
-19.258841904367959
40
-12.060997201123429
40
-12.060997201123429
40
-3.938633359216869
40
-3.938633359216869
40
0
40
0
40
0
40
0
10
405.51024979787178
20
103.43024242867493
30
0
10
389.20766189286752
20
106.6489985742929
30
0
10
373.24030095716864
20
105.93266764290517
30
0
10
341.95583263031881
20
102.14406250766025
30
0
10
324.91710741606056
20
97.896766895114155
30
0
10
285.0431237872981
20
91.009964254021355
30
0
10
266.12545305627765
20
89.676518327686594
30
0
10
216.09119739763798
20
95.668200062654591
30
0
10
192.60669726398842
20
102.98216409917096
30
0
10
157.99898205547191
20
106.4506621487991
30
0
10
145.51571185844949
20
106.54677279978131
30
0
10
132.73275104160675
20
103.55332646507007
30
0
0
ARC
5
104
100
AcDbEntity
8
0
100
AcDbCircle
10
129.64668343044718
20
116.73180937091907
30
0
40
13.535000000014829
210
0
220
0
230
1
100
AcDbArc
50
282.50973313683784
51
283.17973283260125
0
SPLINE
5
105
100
AcDbEntity
8
0
100
AcDbSpline
70
0
71
3
72
14
73
10
74
0
42
0.000000001
43
0.0000000001
44
0.0000000001
40
-4.4572948509627608
40
-4.4572948509627608
40
-4.4572948509627608
40
-4.4572948509627608
40
-3.5736089960696544
40
-3.5736089960696544
40
-2.9676055915260577
40
-2.9676055915260577
40
-2.3177842162670377
40
-2.3177842162670377
40
-1.1556894666294675
40
-1.1556894666294675
40
-1.1556894666294675
40
-1.1556894666294675
10
132.57843832310692
20
103.51814075657252
30
0
10
129.55170475279382
20
102.85437660161988
30
0
10
127.47509790663179
20
101.91100722037559
30
0
10
124.92657392770262
20
100.14315969506443
30
0
10
124.02809534503641
20
99.279083584320418
30
0
10
122.55788775491011
20
97.112537288979297
30
0
10
122.0772969567083
20
95.876627057505146
30
0
10
121.30975815499298
20
92.176391606501369
30
0
10
121.46213903522383
20
89.458082901095551
30
0
10
121.91020524531015
20
86.379123961680321
30
0
0
SPLINE
5
106
100
AcDbEntity
8
0
100
AcDbSpline
70
0
71
3
72
14
73
10
74
0
42
0.000000001
43
0.0000000001
44
0.0000000001
40
0
40
0
40
0
40
0
40
0.46877336806431436
40
0.46877336806431436
40
0.93754673612863626
40
0.93754673612863626
40
1.3268622098105245
40
1.3268622098105245
40
1.7161776834924096
40
1.7161776834924096
40
1.7161776834924096
40
1.7161776834924096
10
133.78512292594519
20
76.107224097130356
30
0
10
132.22254503239748
20
76.107224097130342
30
0
10
130.67490623518285
20
76.412430306305822
30
0
10
127.78373072779669
20
77.598896858344546
30
0
10
126.46783523128819
20
78.468813934296065
30
0
10
124.43207324911079
20
80.478034468627854
30
0
10
123.66240522249169
20
81.533438358214624
30
0
10
122.4910531751905
20
83.84951801168107
30
0
10
122.09708750164418
20
85.094932516744308
30
0
10
121.91020524531018
20
86.379123961680364
30
0
0
LINE
5
107
100
AcDbEntity
8
0
100
AcDbLine
10
133.78512292594519
20
76.107224097130356
30
0
11
404.58366984969388
21
76.107224097131464
31
0
0
CIRCLE
5
108
100
AcDbEntity
8
0
100
AcDbCircle
10
403.54407325650385
20
99.698919533367814
30
0
40
0.94999999999998852
210
0
220
0
230
1
0
CIRCLE
5
109
100
AcDbEntity
8
0
100
AcDbCircle
10
180.52377119998098
20
99.823873216962312
30
0
40
0.94999999999998852
210
0
220
0
230
1
0
CIRCLE
5
110
100
AcDbEntity
8
0
100
AcDbCircle
10
134.83003986868772
20
99.844763139028629
30
0
40
0.94999999999998852
210
0
220
0
230
1
0
CIRCLE
5
111
100
AcDbEntity
8
0
100
AcDbCircle
10
356.25034393116096
20
99.818129625754054
30
0
40
0.94999999999998852
210
0
220
0
230
1
0
ENDSEC
0
SECTION
2
OBJECTS
0
DICTIONARY
5
C
100
AcDbDictionary
3
ACAD_GROUP
350
D
3
ACAD_MLINESTYLE
350
17
0
DICTIONARY
5
D
100
AcDbDictionary
0
DICTIONARY
5
1A
330
C
100
AcDbDictionary
0
DICTIONARY
5
17
100
AcDbDictionary
0
ENDSEC
0
EOF
