0
SECTION
2
HEADER
9
$INSUNITS
70
4
9
$ACADVER
1
AC1014
9
$HANDSEED
5
FFFF
0
ENDSEC
0
SECTION
2
TABLES
0
TABLE
2
VPORT
5
8
100
AcDbSymbolTable
0
ENDTAB
0
TABLE
2
LTYPE
5
5
100
AcDbSymbolTable
0
LTYPE
5
14
100
AcDbSymbolTableRecord
100
AcDbLinetypeTableRecord
2
BYBLOCK
70
0
0
LTYPE
5
15
100
AcDbSymbolTableRecord
100
AcDbLinetypeTableRecord
2
BYLAYER
70
0
0
ENDTAB
0
TABLE
2
LAYER
5
2
100
AcDbSymbolTable
70
2
0
LAYER
5
50
100
AcDbSymbolTableRecord
100
AcDbLayerTableRecord
2
0
70
0
6
CONTINUOUS
0
ENDTAB
0
TABLE
2
STYLE
5
3
100
AcDbSymbolTable
70
1
0
STYLE
5
11
100
AcDbSymbolTableRecord
100
AcDbTextStyleTableRecord
2
STANDARD
70
0
0
ENDTAB
0
TABLE
2
VIEW
5
6
100
AcDbSymbolTable
70
0
0
ENDTAB
0
TABLE
2
UCS
5
7
100
AcDbSymbolTable
70
0
0
ENDTAB
0
TABLE
2
APPID
5
9
100
AcDbSymbolTable
70
2
0
APPID
5
12
100
AcDbSymbolTableRecord
100
AcDbRegAppTableRecord
2
ACAD
70
0
0
ENDTAB
0
TABLE
2
DIMSTYLE
5
A
100
AcDbSymbolTable
70
1
0
ENDTAB
0
TABLE
2
BLOCK_RECORD
5
1
100
AcDbSymbolTable
70
1
0
BLOCK_RECORD
5
1F
100
AcDbSymbolTableRecord
100
AcDbBlockTableRecord
2
*MODEL_SPACE
0
BLOCK_RECORD
5
1B
100
AcDbSymbolTableRecord
100
AcDbBlockTableRecord
2
*PAPER_SPACE
0
ENDTAB
0
ENDSEC
0
SECTION
2
BLOCKS
0
BLOCK
5
20
100
AcDbEntity
100
AcDbBlockBegin
2
*MODEL_SPACE
0
ENDBLK
5
21
100
AcDbEntity
100
AcDbBlockEnd
0
BLOCK
5
1C
100
AcDbEntity
100
AcDbBlockBegin
2
*PAPER_SPACE
0
ENDBLK
5
1D
100
AcDbEntity
100
AcDbBlockEnd
0
ENDSEC
0
SECTION
2
ENTITIES
0
CIRCLE
5
100
100
AcDbEntity
8
0
100
AcDbCircle
10
265.53503986134211
20
4.9118376736269012
30
0
40
1.5749999999999886
210
0
220
0
230
1
0
CIRCLE
5
101
100
AcDbEntity
8
0
100
AcDbCircle
10
410.75831037670071
20
17.512086579007047
30
0
40
1.5749999999999886
210
0
220
0
230
1
0
CIRCLE
5
102
100
AcDbEntity
8
0
100
AcDbCircle
10
403.54407324915894
20
99.698919481852045
30
0
40
1.5749999999999886
210
0
220
0
230
1
0
CIRCLE
5
103
100
AcDbEntity
8
0
100
AcDbCircle
10
127.52659377574528
20
17.665809606665128
30
0
40
1.5750000000000064
210
0
220
0
230
1
0
CIRCLE
5
104
100
AcDbEntity
8
0
100
AcDbCircle
10
134.83003986134278
20
99.84476308751286
30
0
40
1.5750000000000064
210
0
220
0
230
1
0
CIRCLE
5
105
100
AcDbEntity
8
0
100
AcDbCircle
10
180.52377119263608
20
99.823873165446543
30
0
40
1.5749999999999886
210
0
220
0
230
1
0
CIRCLE
5
106
100
AcDbEntity
8
0
100
AcDbCircle
10
356.2503439238161
20
99.818129574238284
30
0
40
1.5749999999999886
210
0
220
0
230
1
0
ARC
5
107
100
AcDbEntity
8
0
100
AcDbCircle
10
129.64668342310159
20
116.73180931940618
30
0
40
13.535000000017783
210
0
220
0
230
1
100
AcDbArc
50
282.50973313683795
51
283.17973283259948
0
SPLINE
5
108
100
AcDbEntity
8
0
100
AcDbSpline
70
0
71
3
72
30
73
26
74
0
42
0.000000001
43
0.0000000001
44
0.0000000001
40
-12.764904865058886
40
-12.764904865058886
40
-12.764904865058886
40
-12.764904865058886
40
-12.07023214669136
40
-12.07023214669136
40
-11.479018611301504
40
-11.479018611301504
40
-10.863350369952324
40
-10.863350369952324
40
-10.164392448050398
40
-10.164392448050398
40
-8.1320238489568837
40
-8.1320238489568837
40
-4.4026394906493405
40
-4.4026394906493405
40
-2.6842893107569221
40
-2.6842893107569221
40
-1.9838733744903623
40
-1.9838733744903623
40
-1.5392291848282806
40
-1.5392291848282806
40
-1.1183297484591055
40
-1.1183297484591055
40
-0.64767109587064975
40
-0.64767109587064975
40
0
40
0
40
0
40
0
10
132.57843831576201
20
103.51814070505675
30
0
10
131.1965865946255
20
103.21509994555734
30
0
10
129.80435936867087
20
102.80588477274992
30
0
10
127.39589903552857
20
101.7735675266168
30
0
10
126.32979845329277
20
101.18089715096916
30
0
10
124.39840367899585
20
99.654741480510467
30
0
10
123.57706893656402
20
98.73521209862075
30
0
10
122.23923204183983
20
96.407238994712458
30
0
10
121.84035782505285
20
95.057021986943283
30
0
10
121.08464107853679
20
89.532657838279988
30
0
10
122.20070107666798
20
84.464572049528812
30
0
10
125.49881578207744
20
67.081034302197466
30
0
10
126.46091168131971
20
58.054984090095836
30
0
10
122.91265292986444
20
36.113291031899365
30
0
10
121.48037838363251
20
30.01794357474963
30
0
10
120.9458119991497
20
23.084105131383737
30
0
10
120.96051029324664
20
21.220838175284833
30
0
10
121.48518479677504
20
18.518406619684306
30
0
10
121.82295014854145
20
17.503119942270004
30
0
10
122.88058411742249
20
15.706880089321819
30
0
10
123.54384551040097
20
14.975732172298448
30
0
10
125.26142943274607
20
13.690275014959532
30
0
10
126.4200304028586
20
13.113857729510865
30
0
10
130.02185598502533
20
12.098828592784338
30
0
10
132.37960217506208
20
11.913625690403142
30
0
10
134.5385045523316
20
11.911278791554395
30
0
0
ARC
5
109
100
AcDbEntity
8
0
100
AcDbCircle
10
134.77791979349797
20
21.378251926738685
30
0
40
9.4700000000002031
210
0
220
0
230
1
100
AcDbArc
50
268.55132581329855
51
279.21056266409983
0
SPLINE
5
110
100
AcDbEntity
8
0
100
AcDbSpline
70
0
71
3
72
18
73
14
74
0
42
0.000000001
43
0.0000000001
44
0.0000000001
40
-35.689297132753701
40
-35.689297132753701
40
-35.689297132753701
40
-35.689297132753701
40
-32.297636363275572
40
-32.297636363275572
40
-25.05003327078775
40
-25.05003327078775
40
-16.192483430707227
40
-16.192483430707227
40
-8.286355634435294
40
-8.286355634435294
40
-3.7642289096961394
40
-3.7642289096961394
40
0
40
0
40
0
40
0
10
136.29371798279769
20
12.03035077999351
30
0
10
149.23912656895135
20
14.129498662132661
30
0
10
163.47748534229873
20
14.169309901189816
30
0
10
192.48962837260518
20
13.265565417799577
30
0
10
206.2086195215372
20
10.524202260763612
30
0
10
239.20519383665021
20
3.5507399347126904
30
0
10
254.77549535230466
20
0.062586974766502823
30
0
10
292.18358013933812
20
2.2205833611239254
30
0
10
308.25629546282278
20
6.5446777390657935
30
0
10
336.24109950542265
20
11.46204757229329
30
0
10
347.22640212131739
20
12.915144904490676
30
0
10
375.18422537297556
20
13.701784403760545
30
0
10
390.02064549762622
20
13.321784015391778
30
0
10
402.47903168311012
20
11.829602490117354
30
0
0
ARC
5
111
100
AcDbEntity
8
0
100
AcDbCircle
10
403.60523516727767
20
21.232398122919079
30
0
40
9.469999999999283
210
0
220
0
230
1
100
AcDbArc
50
263.17003376875323
51
270.98284849570024
0
SPLINE
5
112
100
AcDbEntity
8
0
100
AcDbSpline
70
0
71
3
72
28
73
24
74
0
42
0.000000001
43
0.0000000001
44
0.0000000001
40
-13.65239485226221
40
-13.65239485226221
40
-13.65239485226221
40
-13.65239485226221
40
-12.615768422351232
40
-12.615768422351232
40
-12.05723889989884
40
-12.05723889989884
40
-11.592641196977134
40
-11.592641196977134
40
-11.038312864785706
40
-11.038312864785706
40
-8.4897839945830427
40
-8.4897839945830427
40
-4.546469655116117
40
-4.546469655116117
40
-2.9393027753323007
40
-2.9393027753323007
40
-2.1500510428830899
40
-2.1500510428830899
40
-1.5361938894451452
40
-1.5361938894451452
40
-0.85301615102271178
40
-0.85301615102271178
40
0
40
0
40
0
40
0
10
403.76767503403727
20
11.763791399135803
30
0
10
405.94838645864343
20
11.7637948583947
30
0
10
408.33651483173514
20
11.950909170964064
30
0
10
411.57484843990846
20
12.882030273127864
30
0
10
412.68658422253498
20
13.346038168943146
30
0
10
414.4717263789974
20
14.573817047455131
30
0
10
415.155296197469
20
15.251325781235787
30
0
10
416.35068564996828
20
17.050102427012341
30
0
10
416.74816819024414
20
18.148623535250685
30
0
10
418.06290412519445
20
24.579989892501231
30
0
10
416.01649154297388
20
32.448580340267519
30
0
10
412.01209572817436
20
56.527138578160042
30
0
10
412.58900643748234
20
65.474273193060156
30
0
10
415.71293412572845
20
82.137499961555065
30
0
10
416.63873214995732
20
86.321856533632598
30
0
10
416.91992079882721
20
91.686099158376848
30
0
10
416.83770894340466
20
93.351866736304245
30
0
10
416.16488051803628
20
96.082602795695408
30
0
10
415.69258099045658
20
97.191747976321992
30
0
10
414.20858317835393
20
99.325070883139986
30
0
10
413.20646214711303
20
100.23137085442022
30
0
10
410.61994550331758
20
101.89002804518523
30
0
10
408.68067373686614
20
102.73431081896879
30
0
10
405.90395111318696
20
103.34640727386778
30
0
0
ARC
5
113
100
AcDbEntity
8
0
100
AcDbCircle
10
402.88950138791859
20
90.156487150753975
30
0
40
13.530000000010826
210
0
220
-0
230
1
100
AcDbArc
50
77.126604991816464
51
78.831263163057741
0
SPLINE
5
114
100
AcDbEntity
8
0
100
AcDbSpline
70
0
71
3
72
14
73
10
74
0
42
0.000000001
43
0.0000000001
44
0.0000000001
40
-22.636085612984708
40
-22.636085612984708
40
-22.636085612984708
40
-22.636085612984708
40
-17.043718502080743
40
-17.043718502080743
40
-10.295633202138083
40
-10.295633202138083
40
-5.6830387588748055
40
-5.6830387588748055
40
0
40
0
40
0
40
0
10
405.51024979052681
20
103.43024237715916
30
0
10
382.55097016910997
20
107.96328478803386
30
0
10
359.85136164060907
20
104.84779306666098
30
0
10
317.78243008483622
20
97.048458788805263
30
0
10
295.61681923464147
20
91.292670583280554
30
0
10
251.05294823471672
20
90.790144557439447
30
0
10
235.0266449321424
20
93.181573205230535
30
0
10
198.25439375787485
20
100.37190939407211
30
0
10
179.4006168641377
20
105.19062221925137
30
0
10
160.47222947161714
20
105.94621690449758
30
0
0
LINE
5
115
100
AcDbEntity
8
0
100
AcDbLine
10
160.47222947161714
20
105.94621690449758
30
0
11
160.47222947165619
21
96.337691241166823
31
0
0
LINE
5
116
100
AcDbEntity
8
0
100
AcDbLine
10
160.47222947165619
20
96.337691241166823
30
0
11
184.10053671012804
21
96.337691241166823
31
0
0
ARC
5
117
100
AcDbEntity
8
0
100
AcDbCircle
10
184.10053671012804
20
96.137691241166834
30
0
40
0.20000000000000845
210
0
220
-0
230
1
100
AcDbArc
50
82.227224868562317
51
90
0
LINE
5
118
100
AcDbEntity
8
0
100
AcDbLine
10
184.12758566809316
20
96.335853684311346
30
0
11
265.53503986134228
21
85.22382472675622
31
0
0
LINE
5
119
100
AcDbEntity
8
0
100
AcDbLine
10
265.53503986134228
20
85.22382472675622
30
0
11
344.74397710251219
21
96.333846023478202
31
0
0
ARC
5
120
100
AcDbEntity
8
0
100
AcDbCircle
10
344.77175760753568
20
96.135784811877755
30
0
40
0.19999999999999418
210
0
220
-0
230
1
100
AcDbArc
50
89.997754213290392
51
97.984345091137882
0
LINE
5
121
100
AcDbEntity
8
0
100
AcDbLine
10
344.77176544681015
20
96.335784811724125
30
0
11
393.80123553858078
21
96.333863034342471
31
0
0
ARC
5
122
100
AcDbEntity
8
0
100
AcDbCircle
10
393.80122769930631
20
96.133863034496088
30
0
40
0.20000000000003126
210
-0
220
0
230
1
100
AcDbArc
50
0
51
89.997754213290392
0
LINE
5
123
100
AcDbEntity
8
0
100
AcDbLine
10
394.00122769930636
20
96.133863034496088
30
0
11
394.00122769930636
21
93.513915215050844
31
0
0
LINE
5
124
100
AcDbEntity
8
0
100
AcDbLine
10
394.00122769930636
20
93.513915215050844
30
0
11
401.1999652610267
21
93.513915215050844
31
0
0
LINE
5
125
100
AcDbEntity
8
0
100
AcDbLine
10
401.1999652610267
20
93.513915215050844
30
0
11
401.20006662652747
21
96.100007771628469
31
0
0
ARC
5
126
100
AcDbEntity
8
0
100
AcDbCircle
10
401.40006662637393
20
96.099999932349817
30
0
40
0.19999999999999574
210
0
220
-0
230
1
100
AcDbArc
50
90
51
179.99775421208003
0
LINE
5
127
100
AcDbEntity
8
0
100
AcDbLine
10
401.40006662637393
20
96.29999993234982
30
0
11
411.54999999129274
21
96.29999993234982
31
0
0
ARC
5
128
100
AcDbEntity
8
0
100
AcDbCircle
10
411.54999999129274
20
96.099999932349817
30
0
40
0.20000000000003126
210
-0
220
0
230
1
100
AcDbArc
50
0
51
90
0
LINE
5
129
100
AcDbEntity
8
0
100
AcDbLine
10
411.74999999129278
20
96.099999932349817
30
0
11
411.74999999129273
21
74.199999949846656
31
0
0
ARC
5
130
100
AcDbEntity
8
0
100
AcDbCircle
10
411.54999999129268
20
74.199999949846656
30
0
40
0.19999999999999574
210
-0
220
0
230
1
100
AcDbArc
50
-89.999999999983714
51
0
0
LINE
5
131
100
AcDbEntity
8
0
100
AcDbLine
10
411.54999999129274
20
73.999999949846668
30
0
11
406.74999999129273
21
73.999999949846654
31
0
0
LINE
5
132
100
AcDbEntity
8
0
100
AcDbLine
10
406.74999999129273
20
73.999999949846654
30
0
11
406.74999999129273
21
18.200000218067292
31
0
0
ARC
5
133
100
AcDbEntity
8
0
100
AcDbCircle
10
406.54999999129268
20
18.200000218067288
30
0
40
0.20000000000000018
210
-0
220
0
230
1
100
AcDbArc
50
-89.999999999983714
51
0
0
LINE
5
134
100
AcDbEntity
8
0
100
AcDbLine
10
406.54999999129274
20
18.000000218067285
30
0
11
347.67122483953642
21
18.000000218067285
31
0
0
LINE
5
135
100
AcDbEntity
8
0
100
AcDbLine
10
347.67122483953642
20
18.000000218067285
30
0
11
271.40479949171896
21
7.368922745339761
31
0
0
ARC
5
136
100
AcDbEntity
8
0
100
AcDbCircle
10
271.37718767132975
20
7.5670075437842428
30
0
40
0.20000000000000018
210
-0
220
0
230
1
100
AcDbArc
50
270
51
277.93555037008321
0
LINE
5
137
100
AcDbEntity
8
0
100
AcDbLine
10
271.37718767132975
20
7.3670075437842435
30
0
11
270.15000007180225
21
7.3670075437842453
31
0
0
ARC
5
138
100
AcDbEntity
8
0
100
AcDbCircle
10
270.15000007180225
20
7.5670075437842454
30
0
40
0.19999999999999574
210
0
220
0
230
1
100
AcDbArc
50
180
51
270
0
LINE
5
139
100
AcDbEntity
8
0
100
AcDbLine
10
269.95000007180226
20
7.567007543772295
30
0
11
269.95000007156818
21
11.484001662639434
31
0
0
LINE
5
140
100
AcDbEntity
8
0
100
AcDbLine
10
269.95000007156818
20
11.484001662639434
30
0
11
261.74986809878499
21
11.484001662639434
31
0
0
LINE
5
141
100
AcDbEntity
8
0
100
AcDbLine
10
261.74986809878499
20
11.484001662639434
30
0
11
261.74986843541632
21
7.2001315060712701
31
0
0
ARC
5
142
100
AcDbEntity
8
0
100
AcDbCircle
10
261.54986843541633
20
7.2001314903550409
30
0
40
0.20000000000000018
210
-0
220
0
230
1
100
AcDbArc
50
-90
51
4.517745487845102e-06
0
LINE
5
143
100
AcDbEntity
8
0
100
AcDbLine
10
261.54986843541633
20
7.0001314903550407
30
0
11
258.98596834102835
21
7.0001314903550416
31
0
0
ARC
5
144
100
AcDbEntity
8
0
100
AcDbCircle
10
258.98596834102835
20
7.2001314903550417
30
0
40
0.19999999999999987
210
0
220
0
230
1
100
AcDbArc
50
261.9683439055184
51
270
0
LINE
5
145
100
AcDbEntity
8
0
100
AcDbLine
10
258.95802429985929
20
7.0020932855481401
30
0
11
181.0154057204611
21
18.000131490002932
31
0
0
LINE
5
146
100
AcDbEntity
8
0
100
AcDbLine
10
181.0154057204611
20
18.000131490002932
30
0
11
134.65013153417357
21
18.000131490002875
31
0
0
ARC
5
147
100
AcDbEntity
8
0
100
AcDbCircle
10
134.65013153417357
20
18.200131490002875
30
0
40
0.19999999999999574
210
0
220
0
230
1
100
AcDbArc
50
180
51
270
0
LINE
5
148
100
AcDbEntity
8
0
100
AcDbLine
10
134.45013153417358
20
18.200131490002875
30
0
11
134.45013153417358
21
93.099868406965555
31
0
0
ARC
5
149
100
AcDbEntity
8
0
100
AcDbCircle
10
134.65013153417357
20
93.099868406965555
30
0
40
0.19999999999999574
210
0
220
-0
230
1
100
AcDbArc
50
90
51
180
0
LINE
5
150
100
AcDbEntity
8
0
100
AcDbLine
10
134.65013153417357
20
93.299868406965558
30
0
11
148.47222947161981
21
93.299868406965501
31
0
0
LINE
5
151
100
AcDbEntity
8
0
100
AcDbLine
10
148.47222947161981
20
93.299868406965501
30
0
11
148.47222947161984
21
105.83266834892575
31
0
0
SPLINE
5
152
100
AcDbEntity
8
0
100
AcDbSpline
70
0
71
3
72
10
73
6
74
0
42
0.000000001
43
0.0000000001
44
0.0000000001
40
-1.5927479151026018
40
-1.5927479151026018
40
-1.5927479151026018
40
-1.5927479151026018
40
-0.78431678997027832
40
-0.78431678997027832
40
0
40
0
40
0
40
0
10
148.47222947161964
20
105.8326683489272
30
0
10
145.78166887559235
20
105.66374840135384
30
0
10
143.10247220195879
20
105.39194146271699
30
0
10
137.84691755406493
20
104.6308186443149
30
0
10
135.27827631671042
20
104.14942409669987
30
0
10
132.73275103426184
20
103.5533264135543
30
0
0
ENDSEC
0
SECTION
2
OBJECTS
0
DICTIONARY
5
C
100
AcDbDictionary
3
ACAD_GROUP
350
D
3
ACAD_MLINESTYLE
350
17
0
DICTIONARY
5
D
100
AcDbDictionary
0
DICTIONARY
5
1A
330
C
100
AcDbDictionary
0
DICTIONARY
5
17
100
AcDbDictionary
0
ENDSEC
0
EOF
