0
SECTION
2
HEADER
9
$INSUNITS
70
4
9
$ACADVER
1
AC1014
9
$HANDSEED
5
FFFF
0
ENDSEC
0
SECTION
2
TABLES
0
TABLE
2
VPORT
5
8
100
AcDbSymbolTable
0
ENDTAB
0
TABLE
2
LTYPE
5
5
100
AcDbSymbolTable
0
LTYPE
5
14
100
AcDbSymbolTableRecord
100
AcDbLinetypeTableRecord
2
BYBLOCK
70
0
0
LTYPE
5
15
100
AcDbSymbolTableRecord
100
AcDbLinetypeTableRecord
2
BYLAYER
70
0
0
ENDTAB
0
TABLE
2
LAYER
5
2
100
AcDbSymbolTable
70
2
0
LAYER
5
50
100
AcDbSymbolTableRecord
100
AcDbLayerTableRecord
2
0
70
0
6
CONTINUOUS
0
ENDTAB
0
TABLE
2
STYLE
5
3
100
AcDbSymbolTable
70
1
0
STYLE
5
11
100
AcDbSymbolTableRecord
100
AcDbTextStyleTableRecord
2
STANDARD
70
0
0
ENDTAB
0
TABLE
2
VIEW
5
6
100
AcDbSymbolTable
70
0
0
ENDTAB
0
TABLE
2
UCS
5
7
100
AcDbSymbolTable
70
0
0
ENDTAB
0
TABLE
2
APPID
5
9
100
AcDbSymbolTable
70
2
0
APPID
5
12
100
AcDbSymbolTableRecord
100
AcDbRegAppTableRecord
2
ACAD
70
0
0
ENDTAB
0
TABLE
2
DIMSTYLE
5
A
100
AcDbSymbolTable
70
1
0
ENDTAB
0
TABLE
2
BLOCK_RECORD
5
1
100
AcDbSymbolTable
70
1
0
BLOCK_RECORD
5
1F
100
AcDbSymbolTableRecord
100
AcDbBlockTableRecord
2
*MODEL_SPACE
0
BLOCK_RECORD
5
1B
100
AcDbSymbolTableRecord
100
AcDbBlockTableRecord
2
*PAPER_SPACE
0
ENDTAB
0
ENDSEC
0
SECTION
2
BLOCKS
0
BLOCK
5
20
100
AcDbEntity
100
AcDbBlockBegin
2
*MODEL_SPACE
0
ENDBLK
5
21
100
AcDbEntity
100
AcDbBlockEnd
0
BLOCK
5
1C
100
AcDbEntity
100
AcDbBlockBegin
2
*PAPER_SPACE
0
ENDBLK
5
1D
100
AcDbEntity
100
AcDbBlockEnd
0
ENDSEC
0
SECTION
2
ENTITIES
0
ARC
5
100
100
AcDbEntity
8
0
100
AcDbCircle
10
129.64668343044718
20
116.73180937091907
30
0
40
13.535000000014829
210
0
220
0
230
1
100
AcDbArc
50
282.50973313683784
51
283.1797328326
0
SPLINE
5
101
100
AcDbEntity
8
0
100
AcDbSpline
70
0
71
3
72
30
73
26
74
0
42
0.000000001
43
0.0000000001
44
0.0000000001
40
-11.888036356763163
40
-11.888036356763163
40
-11.888036356763163
40
-11.888036356763163
40
-11.297083943873862
40
-11.297083943873862
40
-10.790713465587473
40
-10.790713465587473
40
-10.238034756020284
40
-10.238034756020284
40
-9.6295477130328653
40
-9.6295477130328653
40
-7.4232852399423983
40
-7.4232852399423983
40
-4.4026394906493405
40
-4.4026394906493405
40
-2.6842893107569221
40
-2.6842893107569221
40
-1.9838733744903623
40
-1.9838733744903623
40
-1.5392291848282806
40
-1.5392291848282806
40
-1.1183297484591055
40
-1.1183297484591055
40
-0.64767109587064975
40
-0.64767109587064975
40
0
40
0
40
0
40
0
10
132.57843832310692
20
103.51814075657252
30
0
10
131.26840248919467
20
103.23084925632841
30
0
10
129.95075686052442
20
102.84850866381575
30
0
10
127.64826918976971
20
101.89607752331953
30
0
10
126.61929898539144
20
101.35105568755421
30
0
10
124.68120578133852
20
99.924355036188231
30
0
10
123.81917342920553
20
99.03694825033547
30
0
10
122.40959346115737
20
96.802124541186544
30
0
10
121.96516896852528
20
95.517568235979127
30
0
10
120.86062681607457
20
89.208422115070334
30
0
10
122.62783341783644
20
82.817059653975747
30
0
10
125.89430364336397
20
63.834733928480361
30
0
10
125.99929081593376
20
55.200416814873385
30
0
10
122.91265293720934
20
36.113291083415135
30
0
10
121.48037839097742
20
30.017943626265399
30
0
10
120.94581200649461
20
23.084105182899506
30
0
10
120.96051030059157
20
21.220838226800602
30
0
10
121.48518480411995
20
18.518406671200076
30
0
10
121.82295015588636
20
17.503119993785774
30
0
10
122.88058412476741
20
15.706880140837589
30
0
10
123.54384551774588
20
14.975732223814218
30
0
10
125.26142944009098
20
13.690275066475301
30
0
10
126.42003041020352
20
13.113857781026635
30
0
10
130.02185599237026
20
12.098828644300108
30
0
10
132.37960218240698
20
11.913625741918912
30
0
10
134.53850455967651
20
11.911278843070164
30
0
0
ARC
5
102
100
AcDbEntity
8
0
100
AcDbCircle
10
134.77791980084291
20
21.378251978254454
30
0
40
9.4700000000002031
210
0
220
0
230
1
100
AcDbArc
50
268.55132581329843
51
279.21056266409971
0
SPLINE
5
103
100
AcDbEntity
8
0
100
AcDbSpline
70
0
71
3
72
18
73
14
74
0
42
0.000000001
43
0.0000000001
44
0.0000000001
40
-35.689297132753701
40
-35.689297132753701
40
-35.689297132753701
40
-35.689297132753701
40
-32.297636363275572
40
-32.297636363275572
40
-25.05003327078775
40
-25.05003327078775
40
-16.192483430707227
40
-16.192483430707227
40
-8.286355634435294
40
-8.286355634435294
40
-3.7642289096961394
40
-3.7642289096961394
40
0
40
0
40
0
40
0
10
136.2937179901426
20
12.03035083150928
30
0
10
149.23912657629626
20
14.129498713648431
30
0
10
163.47748534964364
20
14.169309952705586
30
0
10
192.48962837995009
20
13.265565469315346
30
0
10
206.20861952888214
20
10.524202312279382
30
0
10
239.20519384399512
20
3.5507399862284608
30
0
10
254.77549535964957
20
0.062587026282272806
30
0
10
292.18358014668303
20
2.2205834126396953
30
0
10
308.25629547016769
20
6.5446777905815647
30
0
10
336.24109951276756
20
11.46204762380906
30
0
10
347.22640212866224
20
12.915144956006445
30
0
10
375.18422538032047
20
13.701784455276314
30
0
10
390.02064550497118
20
13.321784066907547
30
0
10
402.47903169045503
20
11.829602541633124
30
0
0
ARC
5
104
100
AcDbEntity
8
0
100
AcDbCircle
10
403.60523517462263
20
21.232398174434849
30
0
40
9.4699999999992901
210
0
220
0
230
1
100
AcDbArc
50
263.17003376875255
51
270.98284849570024
0
SPLINE
5
105
100
AcDbEntity
8
0
100
AcDbSpline
70
0
71
3
72
30
73
26
74
0
42
0.000000001
43
0.0000000001
44
0.0000000001
40
-8.2045269797628357
40
-8.2045269797628357
40
-8.2045269797628357
40
-8.2045269797628357
40
-7.5943805459250076
40
-7.5943805459250076
40
-7.1953750547584256
40
-7.1953750547584256
40
-6.8894070624633095
40
-6.8894070624633095
40
-6.5428579857169771
40
-6.5428579857169771
40
-5.9676860160265059
40
-5.9676860160265059
40
-4.156647077820951
40
-4.156647077820951
40
-2.8267217594689384
40
-2.8267217594689384
40
-1.8875789591493821
40
-1.8875789591493821
40
-1.4202758804396913
40
-1.4202758804396913
40
-1.0533817424255336
40
-1.0533817424255336
40
-0.64246135683468841
40
-0.64246135683468841
40
0
40
0
40
0
40
0
10
403.76767504138223
20
11.763791450651572
30
0
10
405.70722464524567
20
11.763794527355875
30
0
10
407.78189851672346
20
11.911812092738623
30
0
10
410.91165568420888
20
12.646962121805947
30
0
10
412.14836406321467
20
13.082187807472605
30
0
10
414.07432353513803
20
14.250222571597252
30
0
10
414.80332985597107
20
14.876792113083706
30
0
10
416.07653488855101
20
16.530724759026736
30
0
10
416.5260068256498
20
17.525595444256503
30
0
10
417.29818866619007
20
20.367944273985948
30
0
10
417.37648750146809
20
22.470585735769113
30
0
10
416.62145951989567
20
32.551782854070332
30
0
10
413.50495460338067
20
42.918389221510438
30
0
10
412.54062690223697
20
64.160696153519851
30
0
10
413.64843577445987
20
71.188123548318003
30
0
10
415.78726941656737
20
82.485365419046957
30
0
10
416.66828783368737
20
86.552182960453905
30
0
10
416.91674776233822
20
91.801497236026407
30
0
10
416.82495277071496
20
93.44712708011528
30
0
10
416.13760691527551
20
96.157128291967254
30
0
10
415.65650620692617
20
97.26087549690908
30
0
10
414.15089259643071
20
99.387488296320583
30
0
10
413.13380772615466
20
100.29043573657732
30
0
10
410.15345632766417
20
102.16845268614026
30
0
10
407.99527961674346
20
102.88539809542158
30
0
10
405.90395112053193
20
103.34640732538355
30
0
0
ARC
5
106
100
AcDbEntity
8
0
100
AcDbCircle
10
402.88950139526349
20
90.156487202269744
30
0
40
13.53000000001086
210
0
220
-0
230
1
100
AcDbArc
50
77.126604991815768
51
78.831263163057741
0
SPLINE
5
107
100
AcDbEntity
8
0
100
AcDbSpline
70
0
71
3
72
16
73
12
74
0
42
0.000000001
43
0.0000000001
44
0.0000000001
40
-29.702972671887402
40
-29.702972671887402
40
-29.702972671887402
40
-29.702972671887402
40
-25.242889721455985
40
-25.242889721455985
40
-19.258841904367959
40
-19.258841904367959
40
-12.060997201123429
40
-12.060997201123429
40
-3.938633359216869
40
-3.938633359216869
40
0
40
0
40
0
40
0
10
405.51024979787178
20
103.43024242867493
30
0
10
389.20766189286752
20
106.6489985742929
30
0
10
373.24030095716864
20
105.93266764290517
30
0
10
341.95583263031881
20
102.14406250766025
30
0
10
324.91710741606056
20
97.896766895114155
30
0
10
285.0431237872981
20
91.009964254021355
30
0
10
266.12545305627765
20
89.676518327686594
30
0
10
216.09119739763798
20
95.668200062654591
30
0
10
192.60669726398842
20
102.98216409917096
30
0
10
157.99898205547191
20
106.4506621487991
30
0
10
145.51571185844949
20
106.54677279978131
30
0
10
132.73275104160675
20
103.55332646507007
30
0
0
LWPOLYLINE
5
108
100
AcDbEntity
8
0
100
AcDbPolyline
90
8
70
1
43
0.0
10
310.93366394060507
20
73.529865251503082
10
324.40316027907761
20
75.421408890302018
42
0.41421356237309687
10
324.57340345713737
20
75.647278897881819
10
322.68142448935168
20
89.119875171282402
42
0.41421356237309148
10
322.45555448177186
20
89.29011834934218
10
308.98605814329909
20
87.398574710543528
42
0.4142135623730987
10
308.81581496523933
20
87.172704702963713
10
310.70779393302524
20
73.700108429562874
42
0.41421356237309148
0
CIRCLE
5
109
100
AcDbEntity
8
0
100
AcDbCircle
10
410.75831038404567
20
17.512086630522816
30
0
40
0.94999999999998852
210
0
220
0
230
1
0
CIRCLE
5
110
100
AcDbEntity
8
0
100
AcDbCircle
10
180.52377119998098
20
99.823873216962312
30
0
40
0.94999999999998852
210
0
220
0
230
1
0
LWPOLYLINE
5
111
100
AcDbEntity
8
0
100
AcDbPolyline
90
8
70
1
43
0.0
10
236.5291924366748
20
65.611351146874995
10
234.63432853513811
20
52.139160324471433
42
0.41421356237309503
10
234.80452334223963
20
51.913253866760073
10
248.27361432300575
20
50.018825958009934
42
0.41421356237309687
10
248.49952078071709
20
50.18902076511143
10
250.39438468225396
20
63.661211587514622
42
0.4142135623730932
10
250.22418987515243
20
63.887118045225968
10
236.75509889438615
20
65.781545953976476
42
0.41421356237309687
0
LWPOLYLINE
5
112
100
AcDbEntity
8
0
100
AcDbPolyline
90
8
70
1
43
0.0
10
292.06904632976546
20
70.878695246240582
10
305.53854266823799
20
72.770238885039518
42
0.41421356237308582
10
305.70878584629776
20
72.996108892619333
10
303.81680687851218
20
86.468705166019902
42
0.41421356237309148
10
303.59093687093241
20
86.638948344079679
10
290.12144053245953
20
84.747404705281028
42
0.4142135623730987
10
289.95119735439977
20
84.521534697701213
10
291.84317632218563
20
71.04893842430036
42
0.41421356237309148
0
LWPOLYLINE
5
113
100
AcDbEntity
8
0
100
AcDbPolyline
90
25
70
1
43
0.0
10
305.51113474083047
20
31.740121301352122
10
303.51006012110537
20
31.458797306943449
42
0.41418423057956566
10
302.65900174830216
20
30.329417231862497
10
302.81525166627205
20
29.217194162768646
42
-0.41421356237311757
10
302.47478864854838
20
28.765436557893516
10
283.59821551027119
20
26.113573737953331
42
-0.41421356237313411
10
283.14645790539606
20
26.454036755676942
10
282.99068284055306
20
27.562879710341036
42
0.41424289477504656
10
281.86118965685938
20
28.414023317543268
10
279.86011503713422
20
28.13269932313462
42
0.41418423057954035
10
279.00905666433096
20
27.00331924805365
10
279.16480357575767
20
25.894676695920708
42
-0.41421356237309137
10
278.82434055803401
20
25.442919091045511
10
276.85340812315377
20
25.166033959068326
42
0.41419843090805314
10
276.68317517712188
20
24.940165388658613
10
278.57495095504726
20
11.469016010283486
42
0.41421356237308549
10
278.80082096262703
20
11.298772832223712
10
292.46837389391936
20
13.218129885782659
10
311.13312023997219
20
15.843272450447314
42
0.41415168122096846
10
311.30332157323807
20
16.069136577185809
10
309.41186502645724
20
29.538012741958543
42
0.41422869400004614
10
309.18598478684953
20
29.708254482848218
10
307.24866360078556
20
29.436091204801325
42
-0.41421356237308216
10
306.79690599591049
20
29.776554222524947
10
306.64062792452415
20
30.888977694149883
42
0.41424289477500792
0
LWPOLYLINE
5
114
100
AcDbEntity
8
0
100
AcDbPolyline
90
24
70
1
43
0.0
10
251.3762727560898
20
27.801365728286029
10
249.37526841426057
20
28.082497256033516
42
0.41421356237308438
10
248.24586532370486
20
27.23135175787047
10
248.0891970677269
20
26.11623719583455
42
-0.41424179332069289
10
247.63739765252114
20
25.775784362409944
10
228.76090556839227
20
28.429696464758223
42
-0.41421356237307205
10
228.42049091395111
20
28.881490514123342
10
228.57682166593949
20
29.993424929661646
42
0.41424179332073563
10
227.72568958237801
20
31.12292346767596
10
225.72401324745417
20
31.404149407235217
42
0.41421356237310042
10
224.59461015689854
20
30.553003909072238
10
224.43843245940133
20
29.44138098547964
42
-0.41424179332068645
10
223.9866330441956
20
29.100928152055083
10
222.02162402650569
20
29.377195648686758
42
0.41419732948835752
10
221.79572854536826
20
29.206999298040124
10
219.90108280382773
20
15.736359559647051
42
0.41421356237309276
10
220.07127761092926
20
15.510453101935708
10
252.40311582085354
20
10.96297942805972
42
0.41421356237309165
10
252.62902227856495
20
11.133174235161203
10
254.52392005407239
20
24.605605896284104
42
0.41422979544416111
10
254.35371427039698
20
24.831513897540582
10
252.41099785619068
20
25.104647199009619
42
-0.41421356237307849
10
252.07058320174951
20
25.556441248374746
10
252.22740483965134
20
26.671867190271705
42
0.4142417933207086
0
LWPOLYLINE
5
115
100
AcDbEntity
8
0
100
AcDbPolyline
90
8
70
1
43
0.0
10
286.8441981375384
20
70.344726125359372
10
284.95221916975277
20
83.817322398759956
42
0.41421356237309503
10
284.72634916217294
20
83.987565576819719
10
271.25685282370023
20
82.09602193802111
42
0.4142135623730987
10
271.08660964564046
20
81.870151930441295
10
272.97858861342627
20
68.397555657040414
42
0.41421356237309148
10
273.2044586210061
20
68.227312478980636
10
286.67395495947864
20
70.118856117779558
42
0.4142135623730987
0
LWPOLYLINE
5
116
100
AcDbEntity
8
0
100
AcDbPolyline
90
8
70
1
43
0.0
10
280.5701426165262
20
50.024828438131657
10
294.03963895499879
20
51.916372076930557
42
0.4142135623730987
10
294.20988213305856
20
52.142242084510372
10
292.31790316527287
20
65.614838357910969
42
0.41421356237309148
10
292.09203315769309
20
65.785081535970761
10
278.62253681922033
20
63.893537897172131
42
0.4142135623730987
10
278.45229364116057
20
63.667667889592316
10
280.34427260894643
20
50.195071616191441
42
0.41421356237309148
0
LWPOLYLINE
5
117
100
AcDbEntity
8
0
100
AcDbPolyline
90
8
70
1
43
0.0
10
381.52214254654547
20
78.853042543124957
10
381.52214254654496
20
92.454857456875473
42
0.41421356237309503
10
381.32214254654491
20
92.65485745687549
10
367.72185745345519
20
92.654857456875632
42
0.41421356237309503
10
367.5218574534552
20
92.454857456875629
10
367.52185745345491
20
78.853042543124616
42
0.41421356237309503
10
367.72185745345496
20
78.653042543124613
10
381.32214254654536
20
78.65304254312494
42
0.41421356237310802
0
LWPOLYLINE
5
118
100
AcDbEntity
8
0
100
AcDbPolyline
90
8
70
1
43
0.0
10
186.71830675240477
20
53.375469502716911
10
184.82344285086808
20
39.903278680313342
42
0.4142135623730932
10
184.99363765796957
20
39.677372222601996
10
198.46272863873571
20
37.782944313851864
42
0.41421356237309209
10
198.68863509644711
20
37.953139120953345
10
200.58349899798398
20
51.425329943356559
42
0.4142135623730932
10
200.41330419088246
20
51.651236401067905
10
186.94421321011615
20
53.545664309818406
42
0.41421356237309687
0
LWPOLYLINE
5
119
100
AcDbEntity
8
0
100
AcDbPolyline
90
8
70
1
43
0.0
10
400.37214254654492
20
92.654857456875476
10
386.77185745345525
20
92.654857456875632
42
0.41421356237309503
10
386.57185745345521
20
92.454857456875629
10
386.57185745345492
20
78.85304254312463
42
0.41421356237310802
10
386.77185745345497
20
78.653042543124627
10
400.37214254654538
20
78.65304254312494
42
0.41421356237310802
10
400.57214254654548
20
78.853042543124957
10
400.57214254654497
20
92.454857456875473
42
0.41421356237309503
0
LWPOLYLINE
5
120
100
AcDbEntity
8
0
100
AcDbPolyline
90
8
70
1
43
0.0
10
210.77087530729469
20
55.495555485699192
10
212.66573920883158
20
68.967746308102406
42
0.4142135623730932
10
212.49554440173006
20
69.193652765813752
10
199.02645342096378
20
71.088080674564267
42
0.41421356237308965
10
198.80054696325246
20
70.917885867462772
10
196.90568306171573
20
57.445695045059182
42
0.41421356237309148
10
197.07587786881726
20
57.21978858734785
10
210.54496884958328
20
55.325360678597704
42
0.4142135623730912
0
LWPOLYLINE
5
121
100
AcDbEntity
8
0
100
AcDbPolyline
90
8
70
1
43
0.0
10
200.57272513192103
20
32.194646964342638
10
198.67786123038431
20
18.72245614193907
42
0.41421356237308676
10
198.84805603748583
20
18.496549684227727
10
212.31714701825197
20
16.602121775477578
42
0.41421356237309492
10
212.54305347596335
20
16.772316582579062
10
214.43791737750021
20
30.244507404982283
42
0.41421356237309415
10
214.26772257039872
20
30.470413862693633
10
200.79863158963241
20
32.364841771444127
42
0.41421356237310497
0
LWPOLYLINE
5
122
100
AcDbEntity
8
0
100
AcDbPolyline
90
8
70
1
43
0.0
10
327.68034995046696
20
89.824462571081199
10
329.57232891825277
20
76.351866297680317
42
0.4142135623730932
10
329.79819892583259
20
76.181623119620554
10
343.26769526430525
20
78.073166758419475
42
0.41421356237308737
10
343.43793844236495
20
78.299036765999276
10
341.54595947457926
20
91.771633039399845
42
0.41421356237309148
10
341.32008946699949
20
91.941876217459622
10
327.85059312852684
20
90.050332578661013
42
0.41421356237308415
0
LWPOLYLINE
5
123
100
AcDbEntity
8
0
100
AcDbPolyline
90
8
70
1
43
0.0
10
193.63049406584543
20
71.841741855051183
10
180.16140308507917
20
73.736169763801655
42
0.41421356237310414
10
179.9354966273678
20
73.565974956700174
10
178.04063272583105
20
60.093784134296619
42
0.41421356237309503
10
178.21082753293254
20
59.867877676585266
10
191.67991851369868
20
57.973449767835106
42
0.4142135623730912
10
191.90582497141008
20
58.143644574936594
10
193.80068887294695
20
71.615835397339836
42
0.4142135623730932
0
CIRCLE
5
124
100
AcDbEntity
8
0
100
AcDbCircle
10
408.85403986868738
20
91.457837725142582
30
0
40
0.49999999999997158
210
0
220
0
230
1
0
LWPOLYLINE
5
125
100
AcDbEntity
8
0
100
AcDbPolyline
90
8
70
1
43
0.0
10
348.47185745345519
20
92.454857456875658
10
348.4718574534549
20
78.853042543124616
42
0.41421356237309503
10
348.67185745345495
20
78.653042543124613
10
362.27214254654518
20
78.65304254312494
42
0.41421356237310802
10
362.47214254654529
20
78.853042543124957
10
362.47214254654494
20
92.454857456875516
42
0.41421356237309503
10
362.2721425465449
20
92.65485745687549
10
348.67185745345517
20
92.654857456875646
42
0.41421356237309503
0
LWPOLYLINE
5
126
100
AcDbEntity
8
0
100
AcDbPolyline
90
8
70
1
43
0.0
10
285.30881568054207
20
45.595577191939149
10
271.83931934206919
20
43.70403355314054
42
0.4142135623730987
10
271.66907616400943
20
43.478163545560726
10
273.5610551317954
20
30.005567272159848
42
0.41421356237308499
10
273.78692513937517
20
29.83532409410007
10
287.25642147784777
20
31.726867732898995
42
0.4142135623730922
10
287.42666465590753
20
31.952737740478806
10
285.53468568812184
20
45.425334013879365
42
0.41421356237309148
0
LWPOLYLINE
5
127
100
AcDbEntity
8
0
100
AcDbPolyline
90
8
70
1
43
0.0
10
377.61586581891686
20
21.131175086249424
10
377.61586581891652
20
34.732989999999944
42
0.41421356237308854
10
377.41586581891647
20
34.932989999999933
10
363.81558072582669
20
34.932990000000082
42
0.41421356237308854
10
363.6155807258267
20
34.732990000000086
10
363.61558072582636
20
21.13117508624908
42
0.41421356237310153
10
363.81558072582641
20
20.93117508624907
10
377.41586581891676
20
20.931175086249421
42
0.41421356237310153
0
LWPOLYLINE
5
128
100
AcDbEntity
8
0
100
AcDbPolyline
90
8
70
1
43
0.0
10
222.72301073056548
20
34.376015773070698
10
236.19210171133162
20
32.481587864320559
42
0.41421356237310419
10
236.41800816904296
20
32.651782671422048
10
238.31287207057986
20
46.123973493825261
42
0.4142135623730932
10
238.14267726347836
20
46.349879951536607
10
224.67358628271205
20
48.244307860287108
42
0.41421356237309687
10
224.44767982500071
20
48.074113053185613
10
222.55281592346395
20
34.601922230782037
42
0.41421356237309792
0
CIRCLE
5
129
100
AcDbEntity
8
0
100
AcDbCircle
10
408.85403986868738
20
79.957837725142582
30
0
40
0.50000000000004263
210
0
220
0
230
1
0
CIRCLE
5
130
100
AcDbEntity
8
0
100
AcDbCircle
10
265.53503986868702
20
4.9118377251426715
30
0
40
0.94999999999998852
210
0
220
0
230
1
0
LWPOLYLINE
5
131
100
AcDbEntity
8
0
100
AcDbPolyline
90
8
70
1
43
0.0
10
189.84180999946534
20
77.670918421886455
10
191.75940031819036
20
91.304690574125416
42
0.046332651634015544
10
191.76114301702614
20
91.341636217422433
10
177.90174151630487
20
93.290961308405741
42
0.039011962645634536
10
177.89501043563575
20
93.260534811150237
10
175.9766177538863
20
79.621057981246452
42
0.41421356237309503
10
176.1468125609878
20
79.395151523535091
10
189.61590354175399
20
77.50072361478496
42
0.41421356237309687
0
LWPOLYLINE
5
132
100
AcDbEntity
8
0
100
AcDbPolyline
90
8
70
1
43
0.0
10
157.12385745345497
20
78.804742543124604
10
170.72414254654544
20
78.804742543124959
42
0.41421356237310802
10
170.92414254654543
20
79.004742543124962
10
170.924142546545
20
92.60655745687545
42
0.41421356237309503
10
170.72414254654501
20
92.806557456875453
10
157.12385745345512
20
92.806557456875623
42
0.41421356237309503
10
156.92385745345513
20
92.606557456875635
10
156.92385745345499
20
79.004742543124593
42
0.41421356237309503
0
LWPOLYLINE
5
133
100
AcDbEntity
8
0
100
AcDbPolyline
90
8
70
1
43
0.0
10
179.48700000000002
20
54.32500000000001
10
165.88700000000003
20
54.325000000000074
42
0.41421356237309503
10
165.68700000000004
20
54.125000000000078
10
165.6869999999999
20
40.524300000000004
42
0.41421356237309503
10
165.88699999999989
20
40.324300000000008
10
179.48700000000002
20
40.324300000000044
42
0.41421356237309503
10
179.68700000000001
20
40.524300000000039
10
179.68700000000001
20
54.125000000000021
42
0.41421356237309503
0
LWPOLYLINE
5
134
100
AcDbEntity
8
0
100
AcDbPolyline
90
8
70
1
43
0.0
10
205.58335708828949
20
50.727380413479509
10
203.68849318675277
20
37.255189591075933
42
0.41421356237309231
10
203.85868799385429
20
37.029283133364594
10
217.3277789746204
20
35.134855224614455
42
0.41421356237309775
10
217.55368543233175
20
35.305050031715943
10
219.44854933386864
20
48.777240854119171
42
0.41421356237307855
10
219.27835452676715
20
49.003147311830503
10
205.80926354600086
20
50.897575220581004
42
0.41421356237310414
0
CIRCLE
5
135
100
AcDbEntity
8
0
100
AcDbCircle
10
134.83003986868772
20
99.844763139028629
30
0
40
0.94999999999998852
210
0
220
0
230
1
0
LWPOLYLINE
5
136
100
AcDbEntity
8
0
100
AcDbPolyline
90
8
70
1
43
0.0
10
318.29934793612517
20
55.327381210654103
10
331.76884427459777
20
57.218924849453032
42
0.41421356237308554
10
331.93908745265742
20
57.444794857032818
10
330.04710848487179
20
70.91739113043343
42
0.41421356237309148
10
329.82123847729201
20
71.087634308493207
10
316.3517421388193
20
69.19609066969457
42
0.4142135623730987
10
316.18149896075954
20
68.970220662114755
10
318.0734779285454
20
55.497624388713888
42
0.41421356237309148
0
LWPOLYLINE
5
137
100
AcDbEntity
8
0
100
AcDbPolyline
90
8
70
1
43
0.0
10
153.49299999999994
20
40.524300000000004
10
153.49300000000002
20
54.125000000000014
42
0.41421356237309503
10
153.29300000000001
20
54.32500000000001
10
139.69299999999987
20
54.32500000000001
42
0.41421356237309503
10
139.49299999999988
20
54.125000000000014
10
139.49299999999999
20
40.524300000000004
42
0.41421356237309503
10
139.69300000000001
20
40.324300000000008
10
153.29299999999995
20
40.324300000000008
42
0.41421356237309503
0
LWPOLYLINE
5
138
100
AcDbEntity
8
0
100
AcDbPolyline
90
8
70
1
43
0.0
10
137.02600000000004
20
21.0854
10
150.62600000000003
20
21.085400000000046
42
0.41421356237309503
10
150.82600000000002
20
21.285400000000049
10
150.82600000000002
20
34.884800000000048
42
0.41421356237309503
10
150.626
20
35.084800000000051
10
137.02600000000004
20
35.084800000000016
42
0.41421356237309503
10
136.82600000000005
20
34.884800000000013
10
136.82600000000005
20
21.285400000000006
42
0.41421356237309503
0
LWPOLYLINE
5
139
100
AcDbEntity
8
0
100
AcDbPolyline
90
8
70
1
43
0.0
10
215.94020060552845
20
54.566521227053954
10
229.40929158629459
20
52.672093318303794
42
0.41421356237309503
10
229.63519804400593
20
52.842288125405297
10
231.53006194554283
20
66.314478947808524
42
0.41421356237309148
10
231.35986713844133
20
66.540385405519856
10
217.89077615767496
20
68.434813314270357
42
0.41421356237309687
10
217.66486969996362
20
68.264618507168862
10
215.77000579842692
20
54.7924276847653
42
0.4142135623730932
0
LWPOLYLINE
5
140
100
AcDbEntity
8
0
100
AcDbPolyline
90
8
70
1
43
0.0
10
137.68199359498334
20
73.366494302298904
10
137.6819994003784
20
59.764400421904227
42
0.41421342712422909
10
137.881999393385
20
59.564400507264551
10
151.48400011309604
20
59.564400031643068
42
0.41421343284648166
10
151.68400012008942
20
59.764399936203347
10
151.68400661098906
20
73.366493213993536
42
0.41421367892383826
10
151.48400662684298
20
73.566493309433255
10
137.88199361083721
20
73.566494387659219
42
0.41421371059790812
0
LWPOLYLINE
5
141
100
AcDbEntity
8
0
100
AcDbPolyline
90
8
70
1
43
0.0
10
173.02100012008941
20
59.764399936203347
10
173.02100661098905
20
73.366493213993536
42
0.41421367892381228
10
172.82100662684303
20
73.566493309433255
10
159.2189936108372
20
73.566494387659219
42
0.41421371059790812
10
159.01899359498333
20
73.366494302298904
10
159.01899940037839
20
59.764400421904227
42
0.41421342712422909
10
159.21899939338499
20
59.564400507264551
10
172.82100011309606
20
59.564400031643068
42
0.41421343284648166
0
LWPOLYLINE
5
142
100
AcDbEntity
8
0
100
AcDbPolyline
90
8
70
1
43
0.0
10
160.63800000000001
20
34.88480000000002
10
160.63800000000001
20
21.285400000000006
42
0.41421356237309503
10
160.83799999999999
20
21.0854
10
174.43799999999996
20
21.08540000000005
42
0.41421356237309503
10
174.63799999999995
20
21.285400000000049
10
174.63799999999995
20
34.884800000000048
42
0.41421356237309503
10
174.43799999999996
20
35.084800000000051
10
160.83799999999997
20
35.084800000000016
42
0.41421356237309503
0
LWPOLYLINE
5
143
100
AcDbEntity
8
0
100
AcDbPolyline
90
8
70
1
43
0.0
10
304.17340338930148
20
48.246959959199103
10
290.70390705082866
20
46.355416320400458
42
0.4142135623730987
10
290.5336638727689
20
46.129546312820644
10
292.42564284055487
20
32.656950039419783
42
0.4142135623730841
10
292.65151284813464
20
32.486706861360005
10
306.12100918660724
20
34.378250500158927
42
0.4142135623730922
10
306.291252364667
20
34.604120507738742
10
304.39927339688126
20
48.076716781139325
42
0.41421356237309148
0
LWPOLYLINE
5
144
100
AcDbEntity
8
0
100
AcDbPolyline
90
8
70
1
43
0.0
10
311.51613045897415
20
35.13787686662252
10
324.98562679744668
20
37.029420505421442
42
0.41421356237309931
10
325.15586997550633
20
37.255290513001249
10
323.26389100772076
20
50.727886786401825
42
0.4142135623731043
10
323.03802100014093
20
50.898129964461617
10
309.56852466166816
20
49.00658632566298
42
0.4142135623730987
10
309.3982814836084
20
48.780716318083165
10
311.29026045139437
20
35.308120044682305
42
0.41421356237309148
0
LWPOLYLINE
5
145
100
AcDbEntity
8
0
100
AcDbPolyline
90
8
70
1
43
0.0
10
321.23945851654059
20
17.266347322732226
10
334.70895485501308
20
19.157890961531159
42
0.41421356237309315
10
334.87919803307284
20
19.383760969110977
10
332.98721906528721
20
32.856357242511542
42
0.41421356237308499
10
332.76134905770738
20
33.02660042057132
10
319.29185271923467
20
31.13505678177269
42
0.41421356237309792
10
319.12160954117485
20
30.909186774192868
10
321.01358850896077
20
17.436590500791986
42
0.41421356237308121
0
LWPOLYLINE
5
146
100
AcDbEntity
8
0
100
AcDbPolyline
90
8
70
1
43
0.0
10
337.16388292135264
20
57.979139078771553
10
350.63337925982523
20
59.870682717570475
42
0.41421356237310047
10
350.803622437885
20
60.096552725150303
10
348.91164347009931
20
73.569148998550858
42
0.41421356237308965
10
348.68577346251953
20
73.73939217661065
10
335.21627712404688
20
71.847848537812013
42
0.4142135623730987
10
335.04603394598712
20
71.621978530232184
10
336.93801291377281
20
58.149382256831331
42
0.41421356237309148
0
LWPOLYLINE
5
147
100
AcDbEntity
8
0
100
AcDbPolyline
90
8
70
1
43
0.0
10
330.38066544420178
20
37.789634734739991
10
343.85016178267426
20
39.681178373538899
42
0.41421356237309315
10
344.02040496073403
20
39.907048381118713
10
342.12842599294839
20
53.379644654519282
42
0.4142135623730932
10
341.90255598536856
20
53.549887832579053
10
328.43305964689586
20
51.658344193780437
42
0.41421356237309703
10
328.26281646883604
20
51.432474186200608
10
330.15479543662195
20
37.959877912799762
42
0.4142135623730932
0
LWPOLYLINE
5
148
100
AcDbEntity
8
0
100
AcDbPolyline
90
8
70
1
43
0.0
10
310.95662086645257
20
68.436464303230665
10
297.48712452797974
20
66.544920664432055
42
0.4142135623730987
10
297.31688134991998
20
66.319050656852227
10
299.20886031770584
20
52.846454383451366
42
0.41421356237309148
10
299.43473032528561
20
52.676211205391581
10
312.90422666375827
20
54.567754844190517
42
0.4142135623730987
10
313.07446984181803
20
54.793624851770339
10
311.18249087403234
20
68.266221125170873
42
0.41421356237308965
0
LWPOLYLINE
5
149
100
AcDbEntity
8
0
100
AcDbPolyline
90
8
70
1
43
0.0
10
389.52385745345509
20
53.973190000000024
10
389.52385745345481
20
40.371375086248989
42
0.41421356237309503
10
389.72385745345485
20
40.171375086248993
10
403.32414254654515
20
40.171375086249355
42
0.41421356237310802
10
403.52414254654525
20
40.371375086249365
10
403.52414254654491
20
53.973189999999882
42
0.41421356237308204
10
403.32414254654486
20
54.173189999999856
10
389.72385745345514
20
54.173190000000019
42
0.41421356237309503
0
LWPOLYLINE
5
150
100
AcDbEntity
8
0
100
AcDbPolyline
90
8
70
1
43
0.0
10
382.29384681111083
20
59.412875086248995
10
395.89413190420117
20
59.41287508624935
42
0.41421356237309503
10
396.09413190420128
20
59.612875086249346
10
396.09413190420099
20
73.214689999999862
42
0.41421356237309503
10
395.89413190420095
20
73.414689999999865
10
382.29384681111105
20
73.414690000000007
42
0.41421356237309503
10
382.09384681111112
20
73.214690000000004
10
382.09384681111084
20
59.612875086248998
42
0.41421356237309503
0
LWPOLYLINE
5
151
100
AcDbEntity
8
0
100
AcDbPolyline
90
8
70
1
43
0.0
10
401.42614254654546
20
21.131542543124976
10
401.42614254654495
20
34.733357456875481
42
0.41421356237308204
10
401.22614254654491
20
34.93335745687547
10
387.62585745345524
20
34.933357456875612
42
0.41421356237308854
10
387.42585745345525
20
34.733357456875616
10
387.42585745345491
20
21.13154254312462
42
0.41421356237310153
10
387.62585745345496
20
20.931542543124614
10
401.22614254654536
20
20.931542543124966
42
0.41421356237310802
0
LWPOLYLINE
5
152
100
AcDbEntity
8
0
100
AcDbPolyline
90
8
70
1
43
0.0
10
381.89264254654489
20
54.173189999999906
10
368.29235745345511
20
54.173190000000034
42
0.41421356237309503
10
368.09235745345518
20
53.973190000000038
10
368.09235745345495
20
40.371375086249017
42
0.41421356237309503
10
368.292357453455
20
40.171375086249029
10
381.89264254654546
20
40.17137508624937
42
0.41421356237310802
10
382.09264254654551
20
40.371375086249373
10
382.09264254654494
20
53.973189999999917
42
0.41421356237308204
0
LWPOLYLINE
5
153
100
AcDbEntity
8
0
100
AcDbPolyline
90
8
70
1
43
0.0
10
151.674142546545
20
92.806557456875453
10
138.07385745345508
20
92.806557456875623
42
0.41421356237309503
10
137.87385745345512
20
92.606557456875635
10
137.87385745345495
20
79.004742543124593
42
0.41421356237309503
10
138.07385745345493
20
78.804742543124604
10
151.67414254654543
20
78.804742543124945
42
0.41421356237310802
10
151.87414254654541
20
79.004742543124962
10
151.87414254654499
20
92.60655745687545
42
0.41421356237309503
0
LWPOLYLINE
5
154
100
AcDbEntity
8
0
100
AcDbPolyline
90
8
70
1
43
0.0
10
232.74050837029483
20
71.44052771370994
10
246.20959935106112
20
69.546099804959766
42
0.4142135623730987
10
246.43550580877246
20
69.716294612061262
10
248.35309612749739
20
83.350066764300038
42
0.046332651634260258
10
248.35483882633321
20
83.38701240759724
10
234.49543732561187
20
85.336337498580519
42
0.039011962645353046
10
234.48870624494282
20
85.305911001325228
10
232.57031356319334
20
71.666434171421287
42
0.4142135623730932
0
LWPOLYLINE
5
155
100
AcDbEntity
8
0
100
AcDbPolyline
90
8
70
1
43
0.0
10
257.00700000018946
20
43.696612591242712
10
243.5379090194233
20
45.591040499993213
42
0.41421356237309687
10
243.31200256171195
20
45.420845692891724
10
241.41713866017511
20
31.948654870488163
42
0.41421356237309231
10
241.58733346727661
20
31.722748412776824
10
255.05642444804272
20
29.828320504026689
42
0.41421356237309853
10
255.28233090575412
20
29.998515311128173
10
257.17719480729096
20
43.47070613353138
42
0.41421356237309148
0
CIRCLE
5
156
100
AcDbEntity
8
0
100
AcDbCircle
10
127.52659378309021
20
17.665809658180898
30
0
40
0.94999999999998852
210
0
220
0
230
1
0
CIRCLE
5
157
100
AcDbEntity
8
0
100
AcDbCircle
10
408.85403986868738
20
85.707837725142596
30
0
40
0.49999999999997158
210
0
220
0
230
1
0
LWPOLYLINE
5
158
100
AcDbEntity
8
0
100
AcDbPolyline
90
8
70
1
43
0.0
10
369.70075961651156
20
73.414689999999865
10
356.10047452342195
20
73.414690000000007
42
0.41421356237309503
10
355.90047452342191
20
73.214690000000004
10
355.90047452342168
20
59.612875086248998
42
0.41421356237309503
10
356.10047452342172
20
59.412875086248995
10
369.7007596165119
20
59.41287508624935
42
0.41421356237310802
10
369.90075961651195
20
59.612875086249353
10
369.90075961651155
20
73.214689999999877
42
0.41421356237308204
0
CIRCLE
5
159
100
AcDbEntity
8
0
100
AcDbCircle
10
403.54407325650385
20
99.698919533367814
30
0
40
0.94999999999998852
210
0
220
0
230
1
0
CIRCLE
5
160
100
AcDbEntity
8
0
100
AcDbCircle
10
356.25034393116096
20
99.818129625754054
30
0
40
0.94999999999998852
210
0
220
0
230
1
0
LWPOLYLINE
5
161
100
AcDbEntity
8
0
100
AcDbPolyline
90
8
70
1
43
0.0
10
349.04235745345534
20
53.973190000000024
10
349.04235745345511
20
40.371375086248989
42
0.41421356237309503
10
349.24235745345516
20
40.171375086248993
10
362.84264254654545
20
40.171375086249355
42
0.41421356237310802
10
363.04264254654549
20
40.371375086249365
10
363.04264254654493
20
53.973189999999882
42
0.41421356237308204
10
362.84264254654488
20
54.173189999999856
10
349.24235745345533
20
54.173190000000019
42
0.41421356237309503
0
LWPOLYLINE
5
162
100
AcDbEntity
8
0
100
AcDbPolyline
90
8
70
1
43
0.0
10
229.49051608962196
20
86.040279767891093
42
-0.04633265163450466
10
229.48877339078618
20
86.003334124593692
10
227.57118307206127
20
72.369561972355157
42
-0.41421356237309687
10
227.34527661434993
20
72.199367165253662
10
213.87618563358373
20
74.093795074003793
42
-0.41421356237309148
10
213.70599082648224
20
74.31970153171514
10
215.62438350823172
20
87.959178361619252
42
-0.039011962645353088
10
215.63111458890077
20
87.989604858874543
0
LWPOLYLINE
5
163
100
AcDbEntity
8
0
100
AcDbPolyline
90
8
70
1
43
0.0
10
210.62619335291083
20
88.693547128184974
42
-0.046332651633769227
10
210.62445065407499
20
88.656601484888157
10
208.70686033535006
20
75.022829332649053
42
-0.41421356237309687
10
208.48095387763868
20
74.852634525547558
10
195.01186289687254
20
76.747062434297703
42
-0.41421356237309503
10
194.84166808977105
20
76.97296889200905
10
196.76006077152044
20
90.612445721913005
42
-0.039011962645353088
10
196.7667918521895
20
90.642872219168297
0
ENDSEC
0
SECTION
2
OBJECTS
0
DICTIONARY
5
C
100
AcDbDictionary
3
ACAD_GROUP
350
D
3
ACAD_MLINESTYLE
350
17
0
DICTIONARY
5
D
100
AcDbDictionary
0
DICTIONARY
5
1A
330
C
100
AcDbDictionary
0
DICTIONARY
5
17
100
AcDbDictionary
0
ENDSEC
0
EOF
